<svg width="22" height="29" viewBox="0 0 22 29" fill="none" xmlns="http://www.w3.org/2000/svg">
<path d="M10.88 22.0298C8.88997 22.0298 7.26996 20.4098 7.26996 18.4298C7.26996 16.4398 8.88997 14.8198 10.88 14.8198C12.87 14.8198 14.48 16.4398 14.48 18.4298C14.49 20.4098 12.87 22.0298 10.88 22.0298ZM10.88 15.6898C9.36997 15.6898 8.13998 16.9198 8.13998 18.4298C8.13998 19.9398 9.36997 21.1698 10.88 21.1698C12.39 21.1698 13.62 19.9398 13.62 18.4298C13.62 16.9098 12.39 15.6898 10.88 15.6898Z" fill="white" stroke="white" stroke-miterlimit="10"/>
<path d="M16.73 27.5899C16.49 27.5899 16.3 27.3999 16.3 27.1599C16.3 24.8999 14.9 23.4899 14.89 23.4699C13.29 21.9199 10.83 22.0699 10.81 22.0699C8.92997 22.0199 7.48996 22.4799 6.51996 23.4599C5.04996 24.9299 5.08997 27.1099 5.08997 27.1299C5.09997 27.3699 4.90999 27.5699 4.66999 27.5799C4.41999 27.5899 4.22998 27.3999 4.21998 27.1599C4.21998 27.0599 4.15997 24.5999 5.89997 22.8499C7.04997 21.6999 8.67997 21.1499 10.78 21.1999C11.07 21.1799 13.69 21.0899 15.51 22.8499C15.58 22.9199 17.18 24.5199 17.18 27.1599C17.16 27.3999 16.97 27.5899 16.73 27.5899Z" fill="white" stroke="white" stroke-miterlimit="10"/>
<path d="M20.32 11.7999C20.2 11.7999 20.09 11.7499 20 11.6599L11 1.8299L2.00001 11.6599C1.84001 11.8399 1.56003 11.8499 1.39003 11.6899C1.21003 11.5299 1.2 11.2499 1.36 11.0799L10.68 0.899893C10.84 0.719893 11.16 0.719893 11.32 0.899893L20.64 11.0799C20.8 11.2599 20.79 11.5299 20.61 11.6899C20.53 11.7599 20.42 11.7999 20.32 11.7999Z" fill="white" stroke="white" stroke-miterlimit="10"/>
<path d="M20.32 27.8299H16.73C16.49 27.8299 16.3 27.6399 16.3 27.3999C16.3 27.1599 16.49 26.9699 16.73 26.9699H19.89V11.7999H2.12V26.9699H4.64999C4.88999 26.9699 5.07999 27.1599 5.07999 27.3999C5.07999 27.6399 4.88999 27.8299 4.64999 27.8299H1.69C1.45 27.8299 1.26001 27.6399 1.26001 27.3999V11.3699C1.26001 11.1299 1.45 10.9399 1.69 10.9399H20.32C20.56 10.9399 20.75 11.1299 20.75 11.3699V27.3999C20.75 27.6399 20.56 27.8299 20.32 27.8299Z" fill="white" stroke="white" stroke-miterlimit="10"/>
</svg>
