<svg width="22" height="22" viewBox="0 0 11 15" fill="none" xmlns="http://www.w3.org/2000/svg">
<path d="M5.34998 11.49C4.31998 11.49 3.47998 10.65 3.47998 9.62C3.47998 8.59 4.31998 7.75 5.34998 7.75C6.37998 7.75 7.21998 8.59 7.21998 9.62C7.21998 10.65 6.37998 11.49 5.34998 11.49ZM5.34998 8.2C4.56998 8.2 3.92998 8.84 3.92998 9.62C3.92998 10.4 4.56998 11.04 5.34998 11.04C6.12998 11.04 6.76998 10.4 6.76998 9.62C6.76998 8.84 6.12998 8.2 5.34998 8.2Z" stroke="#313740" stroke-width="0.5" stroke-miterlimit="10"/>
<path d="M8.38001 14.38C8.26001 14.38 8.16001 14.28 8.16001 14.16C8.16001 12.99 7.44001 12.25 7.43001 12.25C6.60001 11.45 5.33001 11.52 5.31001 11.52C4.34001 11.49 3.59001 11.73 3.08001 12.24C2.32001 13 2.34001 14.13 2.34001 14.14C2.34001 14.26 2.25001 14.37 2.12001 14.37C1.99001 14.37 1.89001 14.28 1.89001 14.15C1.89001 14.1 1.86001 12.82 2.76001 11.92C3.36001 11.32 4.20001 11.04 5.29001 11.07C5.44001 11.06 6.80001 11.01 7.74001 11.93C7.78001 11.97 8.61001 12.8 8.61001 14.16C8.60001 14.28 8.50001 14.38 8.38001 14.38Z" stroke="#313740" stroke-width="0.5" stroke-miterlimit="10"/>
<path d="M10.24 6.19C10.18 6.19 10.12 6.16999 10.07 6.11999L5.39999 1.02L0.729987 6.11999C0.649987 6.20999 0.499987 6.22 0.409987 6.13C0.319987 6.05 0.309989 5.89999 0.399989 5.80999L5.22999 0.529994C5.31999 0.439994 5.47999 0.439994 5.55999 0.529994L10.39 5.80999C10.47 5.89999 10.47 6.04 10.38 6.13C10.35 6.17 10.29 6.19 10.24 6.19Z" stroke="#313740" stroke-width="0.5" stroke-miterlimit="10"/>
<path d="M10.24 14.5H8.37998C8.25998 14.5 8.15998 14.4 8.15998 14.28C8.15998 14.16 8.25998 14.06 8.37998 14.06H10.02V6.2H0.799976V14.06H2.10998C2.22998 14.06 2.32998 14.16 2.32998 14.28C2.32998 14.4 2.22998 14.5 2.10998 14.5H0.569977C0.449977 14.5 0.349976 14.4 0.349976 14.28V5.97C0.349976 5.85 0.449977 5.75 0.569977 5.75H10.23C10.35 5.75 10.45 5.85 10.45 5.97V14.28C10.46 14.4 10.36 14.5 10.24 14.5Z" stroke="#313740" stroke-width="0.5" stroke-miterlimit="10"/>
</svg>
