<svg width="30" height="29" viewBox="0 0 30 29" fill="none" xmlns="http://www.w3.org/2000/svg">
<path d="M14.75 29C6.75 29 0.25 22.5 0.25 14.5C0.25 6.5 6.75 0 14.75 0C22.75 0 29.25 6.5 29.25 14.5C29.25 22.5 22.75 29 14.75 29ZM14.75 1.66C7.67 1.66 1.91003 7.42 1.91003 14.5C1.91003 21.58 7.67 27.34 14.75 27.34C21.83 27.34 27.59 21.58 27.59 14.5C27.59 7.42 21.83 1.66 14.75 1.66Z" fill="white"/>
<path d="M14.65 22.37C14.19 22.37 13.8199 22 13.8199 21.54V6.83C13.8199 6.37 14.19 6 14.65 6C15.11 6 15.48 6.37 15.48 6.83V21.54C15.47 22 15.1 22.37 14.65 22.37Z" fill="white"/>
<path d="M22 15.0201H7.29004C6.83004 15.0201 6.45996 14.6501 6.45996 14.1901C6.45996 13.7301 6.83004 13.3601 7.29004 13.3601H22C22.46 13.3601 22.83 13.7301 22.83 14.1901C22.83 14.6501 22.46 15.0201 22 15.0201Z" fill="white"/>
</svg>
