<svg width="38" height="44" viewBox="0 0 38 44" fill="none" xmlns="http://www.w3.org/2000/svg">
<path d="M31.61 36.9099H4.68997C3.16997 36.9099 1.36001 36.0599 0.990015 34.1999C0.620014 32.3699 1.64008 30.4699 3.31008 29.8599C5.01008 29.2399 5.90008 28.4699 6.31008 27.2799C6.51008 26.7099 6.51003 26.0799 6.51003 25.4099C6.51003 25.2099 6.51004 25.0199 6.52004 24.8299L6.61001 21.8099C6.63001 21.1799 6.63003 20.5299 6.63003 19.8899C6.63003 17.7099 6.62998 15.4599 7.32998 13.3599C7.40998 13.1099 7.51001 12.8799 7.61001 12.6599C7.89001 12.0899 8.24002 11.5199 8.62002 10.9599C9.85002 9.18993 11.43 7.77993 13.19 6.87993C15.42 5.73993 18.11 5.36993 20.76 5.81993C23.43 6.26993 25.83 7.51993 27.52 9.33993C28.88 10.7999 29.94 12.5999 30.6 14.5299C31.11 16.0399 31.11 17.7999 31.11 19.3599V25.9999C31.11 27.4099 31.96 28.6399 33.39 29.2999C35.43 30.2399 36.54 31.5799 36.7 33.3099C36.86 35.0999 35.86 36.3899 34.02 36.7499C33.2 36.9099 32.36 36.9099 31.61 36.9099ZM18.5601 6.49993C16.8301 6.49993 15.11 6.86993 13.59 7.63993C11.96 8.46993 10.49 9.78993 9.32998 11.4499C8.96998 11.9699 8.65003 12.5099 8.38003 13.0399C8.29003 13.2199 8.21004 13.4099 8.14004 13.6199C7.49004 15.5899 7.49001 17.7799 7.49001 19.8899C7.49001 20.5299 7.49 21.1899 7.47 21.8299L7.38003 24.8499C7.37003 25.0299 7.37002 25.2199 7.37002 25.4099C7.37002 26.1199 7.37002 26.8499 7.12002 27.5599C6.49002 29.3999 4.91 30.1899 3.6 30.6599C2.34 31.1199 1.53998 32.6299 1.82998 34.0299C2.10998 35.4199 3.50997 36.0499 4.68997 36.0499H31.61C32.32 36.0499 33.12 36.0499 33.86 35.8999C35.27 35.6199 35.97 34.7199 35.85 33.3699C35.72 31.9499 34.8101 30.8699 33.0401 30.0599C31.3001 29.2599 30.26 27.7399 30.26 25.9899V19.3599C30.26 17.8699 30.2601 16.1799 29.7901 14.8099C29.1701 12.9899 28.17 11.2999 26.89 9.91992C24.84 7.70992 21.6801 6.49993 18.5601 6.49993Z" fill="#313740" stroke="#313740" stroke-miterlimit="10"/>
<path d="M11.09 18.5899H11.08C10.84 18.5799 10.6601 18.3899 10.6701 18.1499C10.6701 18.0699 11.03 9.69994 19.12 9.68994C19.36 9.68994 19.5501 9.87994 19.5501 10.1199C19.5501 10.3599 19.36 10.5499 19.12 10.5499C11.87 10.5599 11.5401 17.8699 11.5301 18.1799C11.5101 18.3999 11.32 18.5899 11.09 18.5899Z" fill="#313740" stroke="#313740" stroke-miterlimit="10"/>
<path d="M18.84 6.29993C17.46 6.29993 16.34 5.17993 16.34 3.79993C16.34 2.41993 17.46 1.29993 18.84 1.29993C20.22 1.29993 21.34 2.41993 21.34 3.79993C21.34 5.17993 20.22 6.29993 18.84 6.29993ZM18.84 2.15993C17.93 2.15993 17.1899 2.89993 17.1899 3.80993C17.1899 4.71993 17.93 5.45993 18.84 5.45993C19.75 5.45993 20.49 4.71993 20.49 3.80993C20.49 2.89993 19.75 2.15993 18.84 2.15993Z" fill="#313740" stroke="#313740" stroke-miterlimit="10"/>
<path d="M19.11 42.85C17.21 42.85 15.66 41.3 15.66 39.4C15.66 37.5 17.21 35.95 19.11 35.95C21.01 35.95 22.5601 37.5 22.5601 39.4C22.5701 41.3 21.02 42.85 19.11 42.85ZM19.11 36.8C17.68 36.8 16.51 37.97 16.51 39.4C16.51 40.83 17.68 42 19.11 42C20.54 42 21.71 40.83 21.71 39.4C21.71 37.97 20.55 36.8 19.11 36.8Z" fill="#313740" stroke="#313740" stroke-miterlimit="10"/>
</svg>
