<svg width="30" height="38" viewBox="0 0 30 38" fill="none" xmlns="http://www.w3.org/2000/svg">
<path d="M30 19.0699C30 22.4699 30 25.8799 30 29.2799C30 29.6099 29.9 29.8499 29.67 30.0899C27.38 32.3699 25.1 34.6499 22.82 36.9399C22.65 37.1199 22.45 37.1899 22.21 37.1899C17.46 37.1899 12.72 37.1899 7.96996 37.1799C6.47996 37.1799 5.35998 36.0199 5.35998 34.5199C5.35998 33.7299 5.34998 32.9499 5.35998 32.1599C5.35998 31.9199 5.29 31.8699 5.07 31.8799C4.28 31.8899 3.50001 31.8899 2.71001 31.8799C1.22001 31.8699 0.0599902 30.7499 0.0599902 29.2599C0.0499902 20.6499 0.0499902 12.0399 0.0599902 3.43987C0.0599902 1.93987 1.20999 0.829874 2.74999 0.819874C7.73999 0.809874 12.72 0.819874 17.71 0.819874C19.13 0.819874 20.55 0.819874 21.97 0.819874C23.59 0.829874 24.7 1.93986 24.7 3.55986C24.7 4.31986 24.71 5.08987 24.7 5.84987C24.7 6.05987 24.75 6.12986 24.97 6.11986C25.76 6.10986 26.54 6.10986 27.33 6.11986C28.87 6.12986 30 7.25987 30 8.81987C30 12.2399 30 15.6599 30 19.0699ZM1.11999 16.3399C1.11999 20.5699 1.13998 24.8099 1.10998 29.0399C1.09998 30.1299 1.81997 30.8499 2.90997 30.8399C7.33997 30.8099 11.77 30.8299 16.2 30.8299C16.47 30.8299 16.54 30.7599 16.54 30.4899C16.53 28.4599 16.53 26.4299 16.53 24.3999C16.53 23.8599 16.69 23.6999 17.23 23.6999C19.23 23.6999 21.22 23.6899 23.22 23.7099C23.54 23.7099 23.66 23.6499 23.65 23.2999C23.62 21.8999 23.63 20.5099 23.63 19.1099C23.63 13.9399 23.63 8.76987 23.64 3.59987C23.64 2.49987 23.02 1.86986 21.92 1.86986C15.57 1.86986 9.21999 1.87985 2.86999 1.85985C1.84999 1.85985 1.09998 2.55987 1.10998 3.62987C1.13998 7.87987 1.11999 12.1099 1.11999 16.3399ZM28.93 18.7199C28.93 15.4399 28.93 12.1499 28.93 8.86986C28.93 7.81986 28.3 7.18986 27.24 7.17986C26.54 7.16986 25.84 7.17986 25.15 7.17986C24.7 7.17986 24.7 7.17987 24.7 7.62987C24.7 13.0799 24.7 18.5399 24.7 23.9899C24.7 24.3199 24.6 24.5599 24.37 24.7999C22.11 27.0499 19.86 29.2999 17.61 31.5599C17.38 31.7899 17.14 31.8999 16.81 31.8999C13.45 31.8899 10.09 31.8999 6.72997 31.8899C6.45997 31.8899 6.40997 31.9699 6.40997 32.2199C6.42997 32.9399 6.41998 33.6599 6.41998 34.3799C6.41998 35.5299 7.02998 36.1399 8.16998 36.1399C12.61 36.1399 17.05 36.1399 21.49 36.1499C21.76 36.1499 21.83 36.0899 21.83 35.8099C21.82 33.7799 21.82 31.7499 21.82 29.7199C21.82 29.1799 21.98 29.0199 22.52 29.0199C24.54 29.0199 26.56 29.0099 28.57 29.0299C28.85 29.0299 28.93 28.9699 28.93 28.6799C28.93 25.3499 28.93 22.0399 28.93 18.7199ZM22.85 24.7699C21.17 24.7699 19.52 24.7799 17.88 24.7599C17.64 24.7599 17.57 24.8199 17.58 25.0599C17.59 26.6299 17.59 28.1999 17.59 29.7699C17.59 29.8499 17.54 29.9399 17.63 29.9999C19.35 28.2599 21.08 26.5299 22.85 24.7699ZM22.88 35.2599C24.61 33.5299 26.35 31.7999 28.08 30.0699C26.42 30.0699 24.73 30.0699 23.04 30.0699C22.84 30.0699 22.88 30.1999 22.88 30.3099C22.88 31.9599 22.88 33.6199 22.88 35.2599Z" fill="#2196F3"/>
<path d="M12.35 10.3298C10.05 10.3298 7.75002 10.3298 5.45002 10.3298C5.35002 10.3298 5.24999 10.3298 5.15999 10.3098C4.88999 10.2498 4.75002 10.0598 4.76002 9.78979C4.76002 9.52979 4.90004 9.34977 5.15004 9.29977C5.28004 9.26977 5.40999 9.26978 5.53999 9.26978C10.11 9.26978 14.67 9.26978 19.24 9.26978C19.37 9.26978 19.5 9.26978 19.63 9.30978C19.88 9.37978 20.01 9.55979 20 9.81979C20 10.0798 19.86 10.2598 19.61 10.3098C19.48 10.3398 19.35 10.3398 19.22 10.3398C16.93 10.3398 14.64 10.3398 12.35 10.3298C12.35 10.3398 12.35 10.3398 12.35 10.3298Z" fill="#2196F3"/>
<path d="M12.37 12.6399C14.64 12.6399 16.9 12.6399 19.17 12.6399C19.28 12.6399 19.39 12.6399 19.5 12.6399C19.79 12.6599 19.99 12.8599 20 13.1399C20.01 13.4099 19.82 13.6399 19.54 13.6899C19.44 13.7099 19.34 13.6999 19.25 13.6999C14.65 13.6999 10.05 13.6999 5.45001 13.6999C5.36001 13.6999 5.27 13.6999 5.19 13.6799C4.91 13.6299 4.72 13.3899 4.75 13.1199C4.79 12.8399 4.94999 12.6599 5.23999 12.6399C5.46999 12.6299 5.69999 12.6299 5.92999 12.6299C8.07999 12.6399 10.22 12.6399 12.37 12.6399Z" fill="#2196F3"/>
<path d="M12.37 20.3998C10.06 20.3998 7.75001 20.3998 5.45001 20.3998C4.90001 20.3998 4.60001 20.0398 4.83001 19.6098C4.96001 19.3698 5.16998 19.3398 5.41998 19.3398C7.38998 19.3398 9.36001 19.3499 11.33 19.3499C14.01 19.3499 16.69 19.3499 19.36 19.3499C19.76 19.3499 20.01 19.5499 20.01 19.8799C20.01 20.2099 19.77 20.3998 19.37 20.3998C17.03 20.3898 14.7 20.3898 12.37 20.3998Z" fill="#2196F3"/>
<path d="M16.67 6.97995C15.77 6.97995 14.86 6.97995 13.96 6.97995C13.54 6.97995 13.32 6.78993 13.32 6.45993C13.32 6.12993 13.55 5.92993 13.96 5.92993C15.77 5.92993 17.58 5.92993 19.38 5.92993C19.86 5.92993 20.15 6.30994 19.95 6.68994C19.83 6.92994 19.62 6.97995 19.38 6.97995C18.47 6.96995 17.57 6.97995 16.67 6.97995Z" fill="#2196F3"/>
<path d="M16.64 17.0398C15.75 17.0398 14.85 17.0398 13.96 17.0398C13.54 17.0398 13.32 16.8597 13.31 16.5197C13.31 16.1797 13.53 15.9897 13.95 15.9897C15.77 15.9897 17.59 15.9897 19.41 15.9897C19.68 15.9897 19.88 16.0898 19.98 16.3398C20.07 16.5698 20 16.7697 19.82 16.9297C19.7 17.0397 19.55 17.0497 19.39 17.0497C18.47 17.0397 17.55 17.0398 16.64 17.0398Z" fill="#2196F3"/>
<path d="M7.85998 6.97995C7.02998 6.97995 6.2 6.97995 5.38 6.97995C4.98 6.97995 4.76001 6.79994 4.76001 6.46994C4.75001 6.13994 4.99001 5.92993 5.39001 5.92993C7.06001 5.92993 8.72001 5.92993 10.39 5.92993C10.77 5.92993 11 6.13993 11 6.45993C11 6.78993 10.78 6.97995 10.39 6.97995C9.54001 6.97995 8.69998 6.97995 7.85998 6.97995Z" fill="#2196F3"/>
<path d="M7.87 17.0398C7.05 17.0398 6.23998 17.0398 5.41998 17.0398C4.97998 17.0398 4.75 16.8498 4.75 16.5098C4.75 16.1798 4.98002 15.9897 5.40002 15.9897C7.04002 15.9897 8.69002 15.9897 10.33 15.9897C10.76 15.9897 10.97 16.1698 10.98 16.5098C10.99 16.8598 10.76 17.0398 10.32 17.0398C9.50001 17.0398 8.69 17.0398 7.87 17.0398Z" fill="#2196F3"/>
</svg>
