<svg width="48" height="40" viewBox="0 0 48 40" fill="none" xmlns="http://www.w3.org/2000/svg">
<path d="M13.0607 0.939339C12.4749 0.353554 11.5251 0.353554 10.9393 0.939339L1.3934 10.4853C0.80761 11.0711 0.80761 12.0208 1.3934 12.6066C1.97918 13.1924 2.92893 13.1924 3.51472 12.6066L12 4.12132L20.4853 12.6066C21.0711 13.1924 22.0208 13.1924 22.6066 12.6066C23.1924 12.0208 23.1924 11.0711 22.6066 10.4853L13.0607 0.939339ZM13.5 38L13.5 2L10.5 2L10.5 38L13.5 38Z" fill="black"/>
<path d="M35.2764 39.0765C35.8724 39.6519 36.822 39.6351 37.3974 39.0391L46.7731 29.3259C47.3485 28.7298 47.3317 27.7802 46.7356 27.2049C46.1396 26.6296 45.19 26.6463 44.6146 27.2424L36.2807 35.8763L27.6467 27.5423C27.0507 26.967 26.1011 26.9838 25.5257 27.5798C24.9504 28.1759 24.9672 29.1255 25.5632 29.7008L35.2764 39.0765ZM34.1821 2.02944L34.8184 38.0238L37.8179 37.9708L37.1817 1.97642L34.1821 2.02944Z" fill="black"/>
</svg>
