<svg width="30" height="22" viewBox="0 0 30 22" fill="none" xmlns="http://www.w3.org/2000/svg">
<path d="M15 21.5525C10.77 21.5525 6.54 21.5525 2.31 21.5525C0.719998 21.5525 0 20.8325 0 19.2425C0 14.7725 0 10.3125 0 5.84251C0 4.33251 0.759968 3.5825 2.27997 3.5725C4.39997 3.5625 6.51 3.55251 8.63 3.58251C9.18001 3.59251 9.36999 3.43251 9.29999 2.89251C9.25999 2.57251 9.27999 2.24251 9.29999 1.92251C9.35999 0.812509 10.1 0.0325 11.2 0.0225C13.73 -0.0075 16.25 -0.0075 18.78 0.0225C19.95 0.0325 20.66 0.842507 20.69 2.09251C20.73 3.57251 20.73 3.5725 22.23 3.5725C24.02 3.5725 25.81 3.5725 27.61 3.5725C29.24 3.5725 29.99 4.31251 29.99 5.92251C29.99 10.3625 29.99 14.7925 29.99 19.2325C29.99 20.8225 29.27 21.5525 27.69 21.5525C23.46 21.5625 19.23 21.5525 15 21.5525ZM14.94 20.6925C19.17 20.6925 23.4 20.6925 27.63 20.6925C28.79 20.6925 29.12 20.3825 29.12 19.2525C29.12 14.7925 29.13 10.3225 29.12 5.86251C29.12 4.81251 28.75 4.44251 27.69 4.44251C19.23 4.44251 10.77 4.44251 2.31 4.44251C1.21 4.44251 0.869995 4.8025 0.869995 5.9325C0.869995 10.3725 0.869995 14.8025 0.869995 19.2425C0.869995 20.3825 1.18998 20.6925 2.34998 20.6925C6.53998 20.6925 10.74 20.6925 14.94 20.6925ZM15.06 0.872506C14.03 0.872506 13.01 0.872506 11.98 0.872506C10.36 0.872506 10.1 1.15251 10.12 2.75251C10.13 3.21251 10.18 3.48251 10.73 3.42251C11.12 3.38251 11.5 3.53251 11.51 2.84251C11.53 1.85251 12.03 1.45251 13.04 1.44251C14.27 1.43251 15.5 1.44251 16.73 1.44251C17.99 1.44251 18.33 1.74251 18.49 2.97251C18.52 3.23251 18.53 3.4525 18.86 3.4025C19.19 3.3525 19.61 3.6025 19.83 3.2125C20.38 2.2325 19.6 0.872512 18.48 0.862512C17.34 0.862512 16.2 0.872506 15.06 0.872506ZM14.91 3.4125C15.64 3.4125 16.38 3.4125 17.11 3.4125C17.36 3.4125 17.67 3.4825 17.64 3.0425C17.62 2.7125 17.64 2.3325 17.19 2.3225C15.72 2.3025 14.26 2.3025 12.79 2.3225C12.35 2.3325 12.37 2.7225 12.35 3.0525C12.33 3.4925 12.64 3.4125 12.88 3.4125C13.56 3.4125 14.23 3.4125 14.91 3.4125Z" fill="white"/>
<path d="M14.96 17.6924C11.7 17.6824 9.09999 15.0524 9.11999 11.7924C9.13999 8.53242 11.76 5.94242 15.03 5.95242C18.29 5.96242 20.88 8.59243 20.87 11.8624C20.85 15.1324 18.24 17.7024 14.96 17.6924ZM15.02 16.8424C17.8 16.8324 20.07 14.5424 20.03 11.7924C20 9.01242 17.71 6.75241 14.97 6.77241C12.21 6.79241 9.93995 9.09242 9.95995 11.8424C9.96995 14.6224 12.23 16.8524 15.02 16.8424Z" fill="white"/>
<path d="M2.31003 12.4126C2.31003 10.9226 2.31003 9.42261 2.31003 7.93261C2.31003 7.59261 2.23 7.12262 2.72 7.11262C3.3 7.09262 3.17001 7.61261 3.17001 7.96261C3.18001 10.8626 3.17001 13.7626 3.17001 16.6726C3.17001 17.9326 3.39002 18.1726 4.62002 18.2126C4.98002 18.2226 5.41004 18.1826 5.39004 18.6826C5.37004 19.1026 4.97004 19.0726 4.64004 19.0826C3.06004 19.1226 2.31003 18.4026 2.31003 16.8226C2.31003 15.3426 2.31003 13.8826 2.31003 12.4126Z" fill="white"/>
<path d="M24.08 5.95246C24.67 5.95246 25.25 5.93246 25.84 5.96246C26.64 6.00246 27.25 6.40247 27.52 7.17247C27.85 8.11247 27.64 9.09246 27.66 10.0525C27.66 10.2625 27.49 10.4425 27.25 10.4325C26.97 10.4225 26.83 10.2325 26.83 9.97247C26.82 9.35247 26.83 8.74246 26.82 8.12246C26.8 7.17246 26.44 6.80246 25.48 6.79246C24.45 6.78246 23.43 6.79246 22.4 6.79246C22.11 6.79246 21.75 6.81246 21.73 6.41246C21.71 5.94246 22.1 5.96246 22.42 5.95246C22.97 5.93246 23.52 5.94246 24.08 5.95246C24.08 5.94246 24.08 5.94246 24.08 5.95246Z" fill="white"/>
<path d="M26.81 15.5224C26.81 14.5524 26.81 13.5924 26.81 12.6224C26.81 12.3124 26.85 11.9924 27.24 11.9924C27.63 11.9924 27.68 12.3024 27.68 12.6224C27.68 14.5524 27.68 16.4824 27.68 18.4224C27.68 18.7424 27.62 19.0524 27.25 19.0624C26.87 19.0624 26.81 18.7524 26.82 18.4324C26.82 17.4524 26.81 16.4824 26.81 15.5224Z" fill="white"/>
<path d="M8.26001 19.0625C7.88001 19.0625 7.5 19.0725 7.12 19.0625C6.85 19.0525 6.66998 18.9125 6.66998 18.6325C6.66998 18.4025 6.81998 18.2225 7.03998 18.2225C7.88998 18.2025 8.73002 18.2025 9.58002 18.2225C9.81002 18.2225 9.96001 18.4225 9.95001 18.6425C9.94001 18.9025 9.75998 19.0625 9.47998 19.0625C9.07998 19.0625 8.67001 19.0625 8.26001 19.0625Z" fill="white"/>
<path d="M15.58 10.3525C15.37 11.1825 15.57 11.5125 16.25 11.6425C17 11.7825 17.52 12.2425 17.51 13.0925C17.51 13.9425 17.0499 14.4525 16.2899 14.7225C15.8599 14.8725 15.36 14.9025 15.49 15.5825C15.53 15.8025 15.3 15.8325 15.12 15.8425C14.86 15.8525 14.71 15.7325 14.75 15.4825C14.83 14.9525 14.5099 14.8725 14.0999 14.7825C13.6099 14.6725 13.18 14.4225 12.81 14.0725C12.51 13.7925 12.4899 13.6025 12.7899 13.2925C13.1199 12.9525 13.2699 13.1525 13.4599 13.3925C13.4799 13.4125 13.5 13.4325 13.52 13.4525C13.83 13.7325 14.24 14.1125 14.58 13.9325C14.99 13.7125 14.67 13.1325 14.75 12.7125C14.85 12.2025 14.48 12.1325 14.14 12.0525C13.35 11.8625 12.8 11.4425 12.74 10.5825C12.69 9.82249 13.2299 9.11248 14.0999 8.85248C14.5099 8.73248 14.82 8.64248 14.75 8.12248C14.71 7.84248 14.89 7.79248 15.13 7.79248C15.39 7.79248 15.54 7.88249 15.5 8.14249C15.42 8.66249 15.7299 8.76249 16.1499 8.86249C16.5799 8.96249 16.93 9.25248 17.24 9.56248C17.49 9.81248 17.45 9.97248 17.2 10.2025C16.96 10.4225 16.7899 10.5125 16.5899 10.1825C16.5799 10.1625 16.5499 10.1425 16.5299 10.1225C16.2699 9.88248 15.9799 9.54249 15.6499 9.67249C15.2999 9.82249 15.63 10.2725 15.58 10.3525ZM14.7899 10.4125C14.5999 10.1525 15.0299 9.61248 14.4699 9.60248C14.0699 9.59248 13.7199 9.90248 13.7199 10.4125C13.7199 10.9325 14.08 11.1925 14.49 11.1825C15 11.1625 14.6299 10.6625 14.7899 10.4125ZM15.5 12.4225C15.5 12.8125 15.52 13.1825 15.49 13.5525C15.45 14.0625 15.69 14.0825 16.06 13.9225C16.37 13.7825 16.6 13.5425 16.56 13.1925C16.5 12.6225 16.06 12.4925 15.5 12.4225Z" fill="white"/>
</svg>
