<svg width="27" height="28" viewBox="0 0 27 28" fill="none" xmlns="http://www.w3.org/2000/svg">
<path d="M13.39 27.46C5.97001 27.46 0 21.5 0 14.06C0 6.65999 5.97998 0.699991 13.42 0.689991C20.79 0.669991 26.78 6.71999 26.76 14.14C26.73 21.51 20.75 27.46 13.39 27.46ZM13.16 16.21C15.35 16.21 17.55 16.17 19.74 16.23C20.57 16.25 20.8 15.98 20.75 15.18C20.68 14.09 20.71 12.99 20.74 11.89C20.76 11.34 20.54 11.18 20.02 11.19C15.53 11.2 11.04 11.2 6.56 11.19C5.97 11.19 5.78999 11.41 5.79999 11.97C5.82999 13.1 5.84998 14.23 5.78998 15.36C5.75998 16.06 6.01999 16.24 6.67999 16.22C8.83999 16.19 11 16.21 13.16 16.21ZM25.93 15.06C26.06 14.55 25.72 14.44 25.17 14.46C24.25 14.49 23.32 14.52 22.4 14.46C21.65 14.41 21.45 14.68 21.51 15.39C21.57 16.13 21.52 16.85 20.51 16.99C20.24 17.03 19.7 19.63 19.89 19.84C19.98 19.93 20.13 19.96 20.25 20.01C21.24 20.37 22.25 20.7 23.23 21.1C23.61 21.25 23.79 21.18 23.98 20.87C25.08 19.12 25.73 17.24 25.93 15.06ZM2.96002 14.47C2.55002 14.47 2.12998 14.51 1.72998 14.46C0.93998 14.35 0.710007 14.66 0.820007 15.43C1.09001 17.31 1.65002 19.08 2.65002 20.71C2.90002 21.11 3.1 21.27 3.62 21.03C4.50999 20.61 5.46 20.32 6.38 19.96C6.59 19.88 6.94998 19.88 6.91998 19.59C6.82998 18.82 6.68002 18.05 6.52002 17.29C6.41002 16.75 5.88002 17.06 5.58002 16.87C5.18002 16.63 4.96999 16.25 5.04999 15.84C5.26999 14.58 4.66002 14.3 3.58002 14.46C3.38002 14.5 3.17002 14.47 2.96002 14.47ZM23.7 13.67C24.14 13.67 24.6 13.62 25.03 13.68C25.88 13.8 26 13.4 25.9 12.68C25.65 10.86 25.09 9.16 24.16 7.57C23.82 6.99 23.52 6.93999 22.94 7.21999C22.21 7.57999 21.4 7.78998 20.66 8.11998C20.35 8.25998 19.68 8.12998 19.89 8.78998C20.07 9.36998 19.7 10.23 20.68 10.44C21.35 10.58 21.49 11.09 21.53 11.67C21.65 13.67 21.65 13.67 23.7 13.67ZM2.89001 13.67C4.92001 13.67 4.92003 13.67 5.03003 11.63C5.05003 11.16 5.14999 10.57 5.60999 10.55C6.78999 10.52 6.64 9.63999 6.87 8.93999C7.04999 8.37999 6.81999 8.23998 6.35999 8.08998C5.47999 7.81998 4.6 7.52999 3.75 7.15999C3.2 6.91999 2.90998 6.97998 2.59998 7.50998C1.88998 8.73998 1.34999 10.02 1.04999 11.4C0.569988 13.67 0.580015 13.67 2.89001 13.67ZM13.77 4.98999C13.77 5.90999 13.79 6.83998 13.76 7.75998C13.74 8.25998 13.94 8.41999 14.42 8.38999C15.68 8.30999 16.94 8.21999 18.19 7.94999C18.61 7.85999 18.78 7.74999 18.61 7.27999C18.08 5.78999 17.44 4.35999 16.38 3.15999C15.9 2.61999 15.34 2.17998 14.67 1.86998C14.07 1.59998 13.71 1.58999 13.76 2.41999C13.81 3.27999 13.77 4.12999 13.77 4.98999ZM12.97 23.22C12.97 22.3 12.95 21.37 12.98 20.45C12.99 20 12.9 19.76 12.37 19.78C11.07 19.81 9.79001 20 8.51001 20.22C8.01001 20.31 8.01997 20.54 8.15997 20.94C8.54997 22.08 9.03002 23.16 9.71002 24.16C10.32 25.04 11.03 25.81 12.02 26.28C12.65 26.58 13.04 26.57 12.98 25.68C12.92 24.86 12.97 24.04 12.97 23.22ZM13.77 23.1C13.77 23.92 13.77 24.74 13.77 25.56C13.78 26.58 13.89 26.65 14.8 26.23C14.99 26.14 15.17 26.05 15.33 25.93C17.08 24.66 17.92 22.81 18.63 20.86C18.81 20.36 18.42 20.34 18.15 20.3C17.04 20.12 15.92 20 14.81 19.81C13.92 19.65 13.68 20 13.76 20.84C13.83 21.59 13.77 22.34 13.77 23.1ZM12.97 5.07C12.97 4.25 12.97 3.42999 12.97 2.60999C12.97 1.58999 12.83 1.47999 11.97 1.93999C9.76997 3.09999 8.88999 5.21998 8.10999 7.39998C7.95999 7.82998 8.32002 7.82998 8.58002 7.86998C9.49002 8.01998 10.39 8.19998 11.31 8.28998C12.97 8.44998 12.97 8.42999 12.97 6.71999C12.97 6.15999 12.97 5.61 12.97 5.07ZM10.32 1.96C7.76001 2.51 5.66998 3.82998 3.91998 5.72998C3.50998 6.17998 3.71997 6.34999 4.15997 6.49999C4.89997 6.75999 5.64999 6.99999 6.37 7.29999C6.96 7.53999 7.24998 7.46999 7.47998 6.77999C8.06998 4.98999 8.95001 3.34 10.32 1.96ZM10.41 26.26C9.35997 25.11 8.65999 24.03 8.04999 22.89C7.64999 22.14 7.79999 20.86 6.87 20.72C6.09 20.61 5.21 21.25 4.37 21.53C3.69 21.76 3.43998 22.05 4.09998 22.61C4.48998 22.94 4.82002 23.35 5.21002 23.67C6.68002 24.88 8.26997 25.83 10.41 26.26ZM16.66 2.21999C17.45 3.17999 18.11 4.19999 18.69 5.26999C19.09 6.00999 18.93 7.28999 19.87 7.41999C20.65 7.52999 21.53 6.89998 22.37 6.61998C23.07 6.38998 23.23 6.12999 22.64 5.52999C21.23 4.08999 19.64 2.94999 17.73 2.26999C17.42 2.16999 17.12 1.95999 16.66 2.21999ZM16.36 26.12C16.49 26.36 16.63 26.24 16.79 26.19C18.89 25.62 20.69 24.54 22.23 23.03C23.33 21.95 23.33 21.94 21.92 21.41C21.38 21.21 20.81 21.06 20.28 20.83C19.69 20.58 19.48 20.77 19.28 21.36C18.66 23.16 17.84 24.85 16.36 26.12ZM16.52 16.97C15.77 16.97 15.02 17.01 14.27 16.96C13.62 16.91 13.48 17.25 13.59 17.75C13.69 18.21 13.15 18.96 14.23 19.01C15.38 19.06 16.53 19.24 17.68 19.4C19.05 19.6 19.05 19.62 19.29 18.21C19.31 18.11 19.31 18 19.33 17.91C19.55 17.12 19.23 16.88 18.46 16.95C17.82 17.02 17.16 16.97 16.52 16.97ZM12.94 18.01C13.18 17.18 12.82 16.89 11.95 16.96C11.03 17.03 10.1 16.98 9.17999 16.98C7.11999 16.98 7.13998 16.98 7.59998 18.96C7.72998 19.52 7.95001 19.56 8.45001 19.45C9.65001 19.19 10.88 18.99 12.11 19.02C12.83 19.02 13.12 18.77 12.94 18.01ZM10.18 10.4C10.83 10.4 11.48 10.4 12.12 10.4C12.56 10.4 13 10.49 12.99 9.76999C12.98 9.14999 12.63 9.14999 12.2 9.13999C10.94 9.10999 9.69002 8.92999 8.46002 8.63999C7.93002 8.50999 7.74 8.61999 7.62 9.13999C7.33 10.41 7.30001 10.4 8.64001 10.4C9.15001 10.4 9.65999 10.4 10.18 10.4ZM16.55 10.4C17.23 10.4 17.91 10.41 18.59 10.4C18.95 10.4 19.48 10.48 19.24 9.86998C19.07 9.43998 19.46 8.51 18.41 8.71C17.07 8.98 15.73 9.16999 14.36 9.15999C13.83 9.15999 13.75 9.41 13.75 9.84999C13.75 10.33 14 10.4 14.4 10.4C15.12 10.39 15.84 10.4 16.55 10.4ZM16.55 2.11998C16.67 2.04998 16.67 1.99999 16.58 1.96999C16.53 1.94999 16.46 1.92999 16.41 1.93999C16.38 1.94999 16.36 2.00999 16.34 2.04999C16.43 2.07999 16.5 2.10998 16.55 2.11998Z" fill="white"/>
<path d="M16.41 13.8501C16.72 13.5501 16.63 13.09 16.8 12.72C16.89 12.53 16.95 12.3 17.18 12.3C17.41 12.3 17.47 12.54 17.56 12.73C17.72 13.1 17.63 13.56 18.01 13.9C18.13 13.45 18.24 13.03 18.37 12.62C18.42 12.46 18.52 12.28 18.72 12.31C19.01 12.35 18.97 12.6 18.92 12.79C18.73 13.48 18.51 14.1701 18.3 14.8501C18.24 15.0501 18.15 15.2501 17.9 15.2401C17.65 15.2301 17.57 15.0201 17.52 14.8201C17.42 14.4701 17.32 14.1201 17.18 13.6301C17.06 14.0001 17 14.2301 16.92 14.4601C16.82 14.7601 16.88 15.23 16.42 15.23C16.02 15.23 16.05 14.7901 15.95 14.5201C15.74 13.9501 15.56 13.3601 15.32 12.6301C15.07 13.4201 14.86 14.0801 14.66 14.7401C14.59 14.9701 14.53 15.24 14.23 15.23C13.92 15.22 13.89 14.94 13.82 14.72C13.72 14.41 13.63 14.0901 13.53 13.7401C13.14 14.2301 13.45 15.21 12.74 15.18C12.13 15.15 12.27 14.23 12.04 13.72C11.9 13.42 11.82 13.08 11.66 12.59C11.42 13.37 11.25 13.9801 11.04 14.5701C10.95 14.8401 10.95 15.2601 10.52 15.2101C10.19 15.1801 10.18 14.8301 10.11 14.5701C10.03 14.3101 9.95002 14.06 9.84002 13.69C9.75002 13.88 9.72 13.95 9.69 14.03C9.50999 14.44 9.66002 15.18 9.09002 15.19C8.50002 15.2 8.58997 14.46 8.47997 14.04C8.32997 13.49 7.71999 12.59 8.24999 12.42C8.93999 12.2 8.57997 13.4 9.15997 13.81C9.22997 13.55 9.27999 13.3001 9.36999 13.0701C9.48999 12.7801 9.38998 12.26 9.85998 12.3C10.28 12.33 10.22 12.81 10.32 13.12C10.4 13.38 10.48 13.64 10.55 13.87C11.14 13.5 10.53 12.39 11.64 12.33C12.81 12.26 12.19 13.3901 12.75 13.7701C13.09 13.5201 12.97 13.0501 13.13 12.7101C13.22 12.5201 13.27 12.29 13.5 12.29C13.74 12.29 13.8 12.52 13.88 12.72C14.03 13.09 13.97 13.5401 14.26 13.8501C14.84 13.5001 14.12 12.25 15.4 12.34C16.48 12.41 15.86 13.4301 16.41 13.8501Z" fill="white"/>
</svg>
