<svg width="25" height="28" viewBox="0 0 25 28" fill="none" xmlns="http://www.w3.org/2000/svg">
<path d="M2.49005 18.1718C2.47005 19.3418 2.79005 20.7218 3.24005 22.0918C3.41005 22.6118 3.65004 23.2418 2.98004 23.4818C2.16004 23.7917 2.07002 23.0018 1.90002 22.4818C-0.169976 16.2718 1.64002 11.0318 6.83002 8.18176C14.03 4.22176 22.87 8.64178 23.89 16.7018C24.22 19.2818 22.66 21.3417 20.15 21.6617C17.74 21.9717 15.77 20.3817 15.4 17.8517C15.1 15.7917 13.79 14.6917 11.97 14.9717C10.21 15.2517 9.34002 16.7717 9.71002 18.8517C10.36 22.6117 12.59 24.9818 16.13 26.2118C16.67 26.4018 17.4 26.4617 17.16 27.2817C16.9 28.1417 16.22 27.7318 15.71 27.5618C11.28 26.1318 8.22 22.2118 8.19 17.9918C8.18 15.5218 9.74004 13.7518 12.1 13.5818C14.57 13.4118 16.42 14.9118 16.77 17.3718C17.04 19.2318 17.92 20.1918 19.48 20.3018C21.15 20.4218 22.44 19.1818 22.47 17.4318C22.55 12.5018 18.03 8.26174 12.58 8.16174C6.88002 8.07174 2.42005 12.3818 2.49005 18.1718Z" fill="#0F0F0F"/>
<path d="M4.64019 17.8718C4.66019 13.8018 7.4802 10.6718 11.5902 10.1818C15.5202 9.71182 19.3802 12.3118 20.1602 16.0518C20.3102 16.7718 20.9502 17.9818 19.7502 18.2118C18.5702 18.4418 19.0102 17.1618 18.8802 16.5218C18.2002 13.3518 14.8402 11.0718 11.6002 11.6418C7.68021 12.3418 5.58019 15.2218 6.14019 19.1518C6.46019 21.4218 7.38023 23.4218 8.87023 25.1618C9.10023 25.4318 9.3502 25.6918 9.5902 25.9518C9.9502 26.3518 10.4202 26.7618 9.82018 27.2918C9.29018 27.7618 8.93019 27.2818 8.58019 26.9618C6.14019 24.7018 4.63019 21.2018 4.64019 17.8718Z" fill="#0F0F0F"/>
<path d="M24.9601 9.84181C24.9701 10.2618 24.8801 10.5018 24.6201 10.6418C24.3701 10.7818 24.0801 10.7818 23.8701 10.5918C23.6101 10.3518 23.4001 10.0517 23.1801 9.78175C17.7301 3.21175 7.2201 3.22179 1.8001 9.82179C1.7201 9.92179 1.6301 10.0318 1.5501 10.1318C1.2101 10.5718 0.840047 11.0618 0.250047 10.5718C-0.259953 10.1418 0.120091 9.68176 0.420091 9.29176C2.36009 6.78176 4.83006 5.04179 7.89006 4.14179C14.0201 2.34179 20.45 4.18175 24.25 8.85175C24.53 9.20175 24.7701 9.57181 24.9601 9.84181Z" fill="#0F0F0F"/>
<path d="M12.7301 0.00190717C15.5601 0.161907 18.0901 0.811898 20.4801 1.9919C20.9301 2.2119 21.4602 2.46191 21.1802 3.07191C20.8702 3.75191 20.3301 3.49191 19.8201 3.25191C14.9201 0.901907 10.0202 0.931916 5.12016 3.29192C4.65016 3.51192 4.15015 3.7319 3.86015 3.1219C3.57015 2.5219 4.0601 2.26192 4.5001 2.01192C6.4701 0.891917 10.4001 -0.0480928 12.7301 0.00190717Z" fill="#0F0F0F"/>
<path d="M19.4101 24.9519C15.3701 25.0519 12.0301 22.0419 11.7401 18.1419C11.7001 17.6119 11.6901 17.0719 12.3001 16.9519C12.9701 16.8119 13.0601 17.4018 13.1701 17.8818C14.2401 22.3218 16.0501 23.6919 20.5001 23.3919C21.0101 23.3619 21.4501 23.4118 21.5601 23.9318C21.7001 24.5918 21.1501 24.7419 20.6501 24.8319C20.2101 24.9119 19.7601 24.9219 19.4101 24.9519Z" fill="#0F0F0F"/>
</svg>
