<svg width="36" height="36" viewBox="0 0 36 36" fill="none" xmlns="http://www.w3.org/2000/svg">
<path d="M34.1573 14.2219L31.6305 13.7932C31.3673 12.9434 31.0288 12.1237 30.6152 11.3416L32.1042 9.25849C32.736 8.37109 32.6382 7.16032 31.8636 6.39325L29.6225 4.15219C29.2014 3.73106 28.6449 3.49793 28.0508 3.49793C27.5845 3.49793 27.1408 3.64081 26.7648 3.91154L24.6742 5.40057C23.862 4.97191 23.0122 4.61845 22.1323 4.35524L21.7112 1.8585C21.5307 0.78309 20.6057 0.000976562 19.5152 0.000976562H16.3492C15.2587 0.000976562 14.3337 0.78309 14.1532 1.8585L13.7171 4.4154C12.8748 4.67862 12.0551 5.02455 11.273 5.44569L9.20487 3.95667C8.82886 3.68593 8.37764 3.54305 7.91138 3.54305C7.31727 3.54305 6.75325 3.77618 6.33963 4.19732L4.09105 6.43837C3.32398 7.20544 3.2187 8.41621 3.8504 9.30361L5.35447 11.4168C4.94085 12.2065 4.60996 13.0262 4.35427 13.876L1.85752 14.2971C0.782113 14.4776 0 15.4026 0 16.493V19.6591C0 20.7495 0.782113 21.6745 1.85752 21.855L4.41443 22.2912C4.67764 23.1335 5.02357 23.9532 5.44471 24.7353L3.96321 26.7959C3.3315 27.6833 3.42927 28.894 4.20386 29.6611L6.44491 31.9022C6.86605 32.3233 7.42256 32.5564 8.01666 32.5564C8.48292 32.5564 8.92662 32.4136 9.30264 32.1428L11.4158 30.6388C12.1754 31.0373 12.9726 31.3607 13.7923 31.6164L14.2134 34.1432C14.3939 35.2186 15.3189 36.0007 16.4093 36.0007H19.5829C20.6734 36.0007 21.5984 35.2186 21.7788 34.1432L22.2075 31.6164C23.0573 31.3532 23.877 31.0148 24.6591 30.6012L26.7423 32.0902C27.1183 32.3609 27.5695 32.5038 28.0358 32.5038C28.6299 32.5038 29.1864 32.2707 29.6075 31.8495L31.8486 29.6085C32.6156 28.8414 32.7209 27.6306 32.0892 26.7432L30.6002 24.6526C31.0138 23.863 31.3597 23.0432 31.6154 22.201L34.1423 21.7798C35.2177 21.5993 35.9998 20.6743 35.9998 19.5839V16.4178C36.0148 15.3274 35.2327 14.4024 34.1573 14.2219ZM33.9843 19.5839C33.9843 19.6817 33.9166 19.7644 33.8189 19.7794L30.6603 20.3058C30.2618 20.3735 29.9459 20.6668 29.8482 21.0504C29.5624 22.1558 29.1262 23.2162 28.5396 24.2014C28.3366 24.5473 28.3516 24.976 28.5847 25.3069L30.4423 27.9239C30.4949 27.9991 30.4874 28.1119 30.4197 28.1796L28.1786 30.4207C28.126 30.4733 28.0734 30.4808 28.0358 30.4808C27.9906 30.4808 27.953 30.4658 27.9229 30.4432L25.3134 28.5857C24.99 28.3526 24.5538 28.3375 24.2079 28.5406C23.2227 29.1272 22.1624 29.5634 21.0569 29.8491C20.6658 29.9469 20.3725 30.2703 20.3124 30.6613L19.7784 33.8199C19.7634 33.9176 19.6807 33.9853 19.5829 33.9853H16.4169C16.3191 33.9853 16.2364 33.9176 16.2213 33.8199L15.6949 30.6613C15.6272 30.2627 15.3339 29.9469 14.9504 29.8491C13.875 29.5709 12.8372 29.1422 11.8671 28.5857C11.7091 28.4955 11.5287 28.4503 11.3557 28.4503C11.1526 28.4503 10.9421 28.5105 10.7691 28.6384L8.13699 30.5109C8.09938 30.5335 8.06178 30.5485 8.02418 30.5485C7.9941 30.5485 7.93394 30.541 7.8813 30.4884L5.64024 28.2473C5.57256 28.1796 5.56504 28.0743 5.61768 27.9916L7.46768 25.3971C7.70081 25.0662 7.71585 24.63 7.5128 24.2841C6.92622 23.3064 6.475 22.2461 6.18922 21.1406C6.08394 20.7571 5.76809 20.4638 5.37703 20.3961L2.19593 19.8546C2.09817 19.8396 2.03049 19.7569 2.03049 19.6591V16.493C2.03049 16.3953 2.09817 16.3126 2.19593 16.2975L5.33191 15.7711C5.73048 15.7034 6.05386 15.4101 6.15162 15.0191C6.42987 13.9136 6.85853 12.8457 7.4376 11.8605C7.64065 11.5146 7.61808 11.0859 7.38495 10.7626L5.51239 8.13044C5.45975 8.05524 5.46727 7.94243 5.53496 7.87475L7.77601 5.6337C7.82865 5.58105 7.8813 5.57353 7.9189 5.57353C7.96402 5.57353 8.00162 5.58857 8.0317 5.61114L10.6262 7.46113C10.9571 7.69426 11.3933 7.70931 11.7392 7.50626C12.7169 6.91967 13.7772 6.46845 14.8827 6.18268C15.2662 6.07739 15.5595 5.76154 15.6272 5.37049L16.1687 2.18939C16.1837 2.09163 16.2665 2.02394 16.3642 2.02394H19.5303C19.628 2.02394 19.7108 2.09163 19.7258 2.18939L20.2522 5.32536C20.3199 5.72394 20.6132 6.04731 21.0043 6.14508C22.1398 6.43085 23.2227 6.87455 24.2305 7.46865C24.5764 7.6717 25.0051 7.65666 25.336 7.42353L27.9305 5.55849C27.9681 5.53593 28.0057 5.52089 28.0433 5.52089C28.0734 5.52089 28.1335 5.52841 28.1862 5.58105L30.4272 7.82211C30.4949 7.88979 30.5024 7.99508 30.4498 8.0778L28.5923 10.6874C28.3591 11.0107 28.3441 11.4469 28.5471 11.7928C29.1337 12.778 29.5699 13.8384 29.8557 14.9439C29.9534 15.3349 30.2768 15.6282 30.6679 15.6884L33.8264 16.2223C33.9242 16.2373 33.9918 16.3201 33.9918 16.4178V19.5839H33.9843Z" fill="#313740"/>
<path d="M18.0036 10.2275C13.717 10.2275 10.2351 13.7094 10.2351 17.996C10.2351 22.2826 13.717 25.7645 18.0036 25.7645C22.2902 25.7645 25.7721 22.2826 25.7721 17.996C25.7721 13.7094 22.2902 10.2275 18.0036 10.2275ZM18.0036 23.734C14.8375 23.734 12.2656 21.1621 12.2656 17.996C12.2656 14.83 14.8375 12.258 18.0036 12.258C21.1697 12.258 23.7416 14.83 23.7416 17.996C23.7416 21.1621 21.1697 23.734 18.0036 23.734Z" fill="#313740"/>
</svg>
