<svg width="36" height="21" viewBox="0 0 36 21" fill="none" xmlns="http://www.w3.org/2000/svg">
<path d="M29.42 17.4599C30.76 16.0899 31.95 14.8699 33.15 13.6499C33.33 13.4699 33.36 13.3099 33.17 13.1099C31.97 11.8999 30.7799 10.6799 29.5999 9.46992C29.4599 9.59992 29.39 9.62992 29.39 9.65992C29.26 11.4499 29.26 11.4499 27.41 11.4499C21.5 11.4499 15.59 11.4599 9.67 11.4299C8.98 11.4299 8.69999 11.5999 8.78999 12.3099C8.83999 12.7299 8.79 13.1499 8.8 13.5799C8.81 14.0999 8.80993 14.6099 8.22993 14.8499C7.61993 15.1099 7.23993 14.7399 6.84993 14.3499C5.45993 12.9499 4.04999 11.5499 2.65999 10.1499C2.09999 9.58991 1.53993 9.02992 0.979935 8.46992C0.359935 7.82992 0.329896 7.37992 0.939896 6.76992C2.9699 4.72992 5.00999 2.69991 7.03999 0.669912C7.38999 0.319912 7.76995 0.149909 8.24995 0.369909C8.69995 0.569909 8.80999 0.959912 8.78999 1.41991C8.76999 1.91991 8.82997 2.42991 8.76997 2.91991C8.68997 3.61991 8.98995 3.73992 9.61995 3.73992C12.7099 3.70992 15.8 3.72991 18.88 3.72991C19.14 3.72991 19.41 3.71992 19.67 3.76992C20.18 3.86992 20.4599 4.20991 20.4499 4.71991C20.4399 5.22991 20.1299 5.54992 19.6199 5.62992C19.41 5.65992 19.1999 5.64991 18.9899 5.64991C15.6399 5.64991 12.29 5.64991 8.93001 5.64991C7.02001 5.64991 7.02 5.64992 6.8 3.73992C6.12 4.19992 5.62991 4.81992 5.07991 5.34992C4.42991 5.96992 3.81 6.60991 3.17 7.24991C3.01 7.40991 2.75998 7.55992 3.02998 7.82992C4.24998 9.04992 5.45994 10.2799 6.73994 11.5599C7.13994 9.55991 7.13996 9.55991 9.12996 9.55991C14.94 9.55991 20.74 9.54992 26.55 9.57992C27.25 9.57992 27.5 9.39991 27.42 8.69991C27.37 8.17991 27.42 7.64991 27.41 7.11991C27.4 6.67991 27.5599 6.34991 27.9599 6.14991C28.3699 5.94991 28.75 6.04992 29.05 6.34992C31.18 8.46992 33.31 10.5899 35.42 12.7399C35.83 13.1599 35.8 13.6799 35.39 14.0899C33.29 16.2099 31.1799 18.3099 29.0699 20.4199C28.7699 20.7199 28.3899 20.8299 27.9799 20.6499C27.5699 20.4699 27.41 20.1299 27.41 19.6999C27.41 19.1699 27.37 18.6399 27.42 18.1199C27.48 17.4699 27.2599 17.2699 26.5999 17.2699C23.4899 17.2999 20.37 17.2899 17.26 17.2799C17 17.2799 16.7299 17.2799 16.4699 17.2299C15.9999 17.1199 15.74 16.7799 15.75 16.3099C15.76 15.8099 16.04 15.4699 16.56 15.3799C16.79 15.3399 17.03 15.3599 17.27 15.3599C20.62 15.3599 23.9699 15.3599 27.3299 15.3599C29.2599 15.3399 29.26 15.3399 29.42 17.4599Z" fill="white"/>
</svg>
