<svg width="27" height="34" viewBox="0 0 27 34" fill="none" xmlns="http://www.w3.org/2000/svg">
<path d="M24.6 33.6501H2.60999C1.28999 33.6501 0.209961 32.5701 0.209961 31.2501V9.26013C0.209961 7.94013 1.28999 6.86011 2.60999 6.86011H12.16C12.57 6.86011 12.9 7.19013 12.9 7.60013C12.9 8.01013 12.57 8.34012 12.16 8.34012H2.60999C2.10999 8.34012 1.69995 8.75012 1.69995 9.25012V31.2401C1.69995 31.7401 2.10999 32.1501 2.60999 32.1501H24.6C25.1 32.1501 25.51 31.7401 25.51 31.2401V9.25012C25.51 8.75012 25.1 8.34012 24.6 8.34012H14.35C13.94 8.34012 13.61 8.01013 13.61 7.60013C13.61 7.19013 13.94 6.86011 14.35 6.86011H24.6C25.92 6.86011 27 7.94013 27 9.26013V31.2501C27 32.5701 25.92 33.6501 24.6 33.6501Z" fill="#FFC107"/>
<path d="M26.26 22.23H21.54C21.13 22.23 20.8 21.9 20.8 21.49C20.8 21.08 21.13 20.75 21.54 20.75H26.26C26.67 20.75 27 21.08 27 21.49C27 21.9 26.67 22.23 26.26 22.23Z" fill="#FFC107"/>
<path d="M18.16 22.23H0.949951C0.539951 22.23 0.209961 21.9 0.209961 21.49C0.209961 21.08 0.539951 20.75 0.949951 20.75H18.16C18.57 20.75 18.9 21.08 18.9 21.49C18.9 21.9 18.57 22.23 18.16 22.23Z" fill="#FFC107"/>
<path d="M13.23 19.4801C12.96 19.4801 12.71 19.3301 12.58 19.0901L8.63004 11.8301C8.51004 11.6001 8.51005 11.3301 8.64005 11.1001C8.77005 10.8801 9.01005 10.7401 9.26005 10.7301L11.36 10.6801L11.4201 7.58008C11.4201 7.56008 11.4201 7.54009 11.4201 7.53009C11.4301 7.46009 12.0901 0.850088 18.0601 0.0900879C18.0901 0.0900879 18.1201 0.0800781 18.1501 0.0800781H24.1801C24.3501 0.0800781 24.5101 0.140082 24.6501 0.240082C24.8201 0.380082 25.6701 1.12008 25.5601 2.05008C25.5101 2.43008 25.29 2.96008 24.5 3.33008C24.41 3.37008 24.32 3.39009 24.22 3.40009L18.57 3.68008C18.25 3.74008 15.57 4.33009 15.09 7.65009V10.3801H17.49C17.75 10.3801 18 10.5201 18.13 10.7501C18.26 10.9801 18.2701 11.2601 18.1401 11.4901L13.8901 19.1101C13.7501 19.3401 13.5 19.4801 13.23 19.4801ZM10.51 12.1901L13.24 17.2001L16.22 11.8601H14.35C13.94 11.8601 13.61 11.5301 13.61 11.1201V7.59009C13.61 7.56009 13.61 7.52008 13.62 7.49008C14.13 3.79008 16.9601 2.4101 18.3901 2.2001C18.4101 2.2001 18.44 2.19009 18.46 2.19009L24 1.9201C24.05 1.89011 24.07 1.8701 24.09 1.8501C24.07 1.7801 23.9901 1.67009 23.9001 1.56009H18.22C13.6 2.18009 12.9701 7.1801 12.9201 7.6301L12.85 11.4101C12.84 11.8101 12.52 12.1301 12.13 12.1401L10.51 12.1901Z" fill="#FFC107"/>
</svg>
