<svg width="34" height="35" viewBox="0 0 34 35" fill="none" xmlns="http://www.w3.org/2000/svg">
<path d="M27.88 5.22995C27.88 3.89995 27.81 2.90996 27.9 1.93996C27.99 0.889957 28.6399 0.209951 29.7199 0.199951C30.7899 0.199951 31.52 0.869947 31.54 1.92995C31.61 5.05995 31.5599 8.19996 31.5899 11.33C31.5999 12.13 31.1199 12.1199 30.5699 12.1199C27.6099 12.1099 24.6499 12.13 21.6899 12.11C20.4899 12.1 19.63 11.5799 19.66 10.2599C19.69 8.97995 20.5399 8.44996 21.7399 8.43996C22.9899 8.42996 24.24 8.43996 25.88 8.43996C21.93 5.02996 17.8099 3.95996 13.1999 5.31996C8.33991 6.74996 5.2799 10.08 4.1899 14.9799C2.6599 21.8499 7.01991 28.61 13.8299 30.25C20.5999 31.88 27.5 27.75 29.31 20.95C29.58 19.95 29.71 18.9 29.76 17.86C29.82 16.58 30.45 15.8199 31.66 15.8699C32.89 15.9199 33.36 16.79 33.39 18.03C33.56 25.5 27.4599 32.63 19.7199 33.95C10.8599 35.4599 2.38995 29.82 0.619952 21.24C-1.21005 12.35 4.00998 3.84995 12.77 1.61995C18.24 0.209949 23.17 1.54995 27.88 5.22995Z" fill="#FFC107"/>
</svg>
