<svg width="37" height="37" viewBox="0 0 37 37" fill="none" xmlns="http://www.w3.org/2000/svg">
<path d="M21.77 35.99C21.37 35.99 21.02 35.75 20.87 35.39L15.4399 22.05L1.96997 16.75C1.59997 16.61 1.35999 16.25 1.35999 15.86C1.35999 15.47 1.58995 15.11 1.94995 14.96L35.24 1.04002C35.6 0.890023 36.0201 0.970014 36.3 1.25001C36.58 1.53001 36.66 1.95001 36.51 2.31001L22.65 35.4C22.52 35.76 22.16 35.99 21.77 35.99ZM4.91003 15.83L16.55 20.41C16.8 20.51 16.99 20.7 17.09 20.95L21.79 32.5L33.83 3.74L4.91003 15.83Z" fill="#6FCC5C"/>
<path d="M16.4 22.1299C16.15 22.1299 15.9099 22.0399 15.7199 21.8499C15.3399 21.4699 15.3399 20.8599 15.7199 20.4799L34.15 2.0599C34.53 1.6799 35.14 1.6799 35.52 2.0599C35.9 2.4399 35.9 3.0499 35.52 3.4299L17.0899 21.8499C16.8899 22.0299 16.65 22.1299 16.4 22.1299Z" fill="#6FCC5C"/>
<path d="M3.20993 28.53C2.95993 28.53 2.72 28.44 2.53 28.25C2.15 27.87 2.15 27.26 2.53 26.88L6.80001 22.61C7.18001 22.23 7.79001 22.23 8.17001 22.61C8.55001 22.99 8.55001 23.5999 8.17001 23.9799L3.89999 28.25C3.69999 28.43 3.45993 28.53 3.20993 28.53Z" fill="#6FCC5C"/>
<path d="M4.95993 33.8401C4.70993 33.8401 4.47 33.7501 4.28 33.5601C3.9 33.1801 3.9 32.5701 4.28 32.1901L8.94992 27.5201C9.32992 27.1401 9.93991 27.1401 10.3199 27.5201C10.6999 27.9001 10.6999 28.5101 10.3199 28.8901L5.64999 33.5701C5.44999 33.7401 5.20993 33.8401 4.95993 33.8401Z" fill="#6FCC5C"/>
<path d="M1.53 37C1.28 37 1.03994 36.9099 0.849941 36.7199C0.469941 36.3399 0.469941 35.7299 0.849941 35.3499L2.82992 33.37C3.20992 32.99 3.81992 32.99 4.19992 33.37C4.57992 33.75 4.57992 34.36 4.19992 34.74L2.21994 36.7199C2.01994 36.9099 1.78 37 1.53 37Z" fill="#6FCC5C"/>
<path d="M10.27 35.4502C10.02 35.4502 9.77993 35.3601 9.58993 35.1701C9.20993 34.7901 9.20993 34.1801 9.58993 33.8001L13.8199 29.5702C14.1999 29.1902 14.8099 29.1902 15.1899 29.5702C15.5699 29.9502 15.5699 30.5602 15.1899 30.9402L10.9599 35.1701C10.7699 35.3601 10.52 35.4502 10.27 35.4502Z" fill="#6FCC5C"/>
</svg>
