<svg width="26" height="22" viewBox="0 0 26 22" fill="none" xmlns="http://www.w3.org/2000/svg">
<path d="M5.58992 8.68988C5.58992 11.0799 5.59991 13.4699 5.57991 15.8599C5.57991 16.3399 5.7199 16.5299 6.1999 16.4699C6.3599 16.4499 6.52001 16.4599 6.68001 16.4699C7.38001 16.4899 7.75996 17.0299 7.37996 17.5999C6.43996 18.9999 5.4499 20.3599 4.4499 21.7199C4.2099 22.0499 3.88999 22.0099 3.65999 21.6899C2.68999 20.3399 1.69997 19.0099 0.769973 17.6299C0.379973 17.0599 0.749895 16.4999 1.4399 16.4799C2.5399 16.4399 2.53999 16.4399 2.53999 15.3499C2.53999 10.8199 2.53999 6.28987 2.53999 1.75987C2.53999 0.629872 2.7999 0.369873 3.9499 0.369873C4.10991 0.369873 4.27001 0.369873 4.43001 0.369873C5.26001 0.379873 5.58992 0.699877 5.58992 1.52988C5.59992 3.90988 5.58992 6.29988 5.58992 8.68988Z" fill="white"/>
<path d="M17.15 3.06985C14.9 3.06985 12.64 3.06985 10.39 3.06985C9.39001 3.06985 9.02001 2.69985 9.01001 1.71985C9.01001 0.739849 9.37999 0.349854 10.36 0.349854C14.87 0.349854 19.37 0.349854 23.88 0.349854C24.88 0.349854 25.24 0.709844 25.24 1.69984C25.24 2.70984 24.9 3.05985 23.9 3.06985C21.66 3.06985 19.4 3.06985 17.15 3.06985Z" fill="white"/>
<path d="M15.86 9.35984C14.01 9.35984 12.1699 9.35984 10.3199 9.35984C9.37995 9.35984 9.01 8.96984 9 8.01984C9 7.04984 9.36003 6.64983 10.28 6.64983C13.99 6.63983 17.71 6.63983 21.42 6.64983C22.32 6.64983 22.66 7.05984 22.65 8.05984C22.64 8.97984 22.29 9.35984 21.38 9.35984C19.55 9.35984 17.71 9.35984 15.86 9.35984Z" fill="white"/>
<path d="M14.3901 12.9297C15.7301 12.9297 17.0801 12.9197 18.4201 12.9297C19.3201 12.9397 19.6701 13.3098 19.6801 14.2398C19.6901 15.2398 19.35 15.6397 18.45 15.6397C15.72 15.6497 12.9901 15.6497 10.2601 15.6397C9.36006 15.6397 9.00007 15.2097 9.02007 14.2297C9.03007 13.3197 9.4001 12.9297 10.3001 12.9297C11.6601 12.9297 13.0301 12.9297 14.3901 12.9297Z" fill="white"/>
<path d="M12.83 19.2198C13.69 19.2198 14.56 19.2098 15.42 19.2198C16.28 19.2298 16.63 19.6398 16.63 20.5798C16.63 21.5198 16.28 21.9298 15.41 21.9298C13.68 21.9398 11.96 21.9398 10.23 21.9298C9.36998 21.9198 9.01001 21.4998 9.01001 20.5698C9.01001 19.6298 9.35999 19.2298 10.24 19.2198C11.1 19.2098 11.96 19.2198 12.83 19.2198Z" fill="white"/>
</svg>
