<svg width="28" height="27" viewBox="0 0 28 27" fill="none" xmlns="http://www.w3.org/2000/svg">
<path d="M21.82 5.39987C20.68 4.30987 19.59 3.25988 18.5 2.21988C17.99 1.73988 17.62 1.18988 18.22 0.579882C18.83 -0.0401183 19.36 0.359886 19.85 0.849886C21.42 2.43989 23 4.01988 24.59 5.58988C25.25 6.23988 25.32 6.80989 24.63 7.48989C23.01 9.07989 21.4101 10.6899 19.8101 12.2999C19.3501 12.7699 18.84 13.1299 18.25 12.5799C17.64 11.9999 17.92 11.4399 18.44 10.9399C19.53 9.87988 20.62 8.81987 21.7 7.75987C21.42 7.39987 21.12 7.53987 20.86 7.53987C16.78 7.52987 12.7 7.52988 8.62001 7.52988C5.22001 7.53988 3.01003 9.51987 2.64003 12.8699C2.56003 13.5699 2.38999 14.1999 1.53999 14.1199C0.749988 14.0499 0.689981 13.4299 0.719981 12.7699C0.869981 8.93988 4.09001 5.68988 7.94001 5.62988C12.16 5.55988 16.38 5.60989 20.6 5.59989C20.95 5.59989 21.31 5.71987 21.82 5.39987Z" fill="white"/>
<path d="M6.27002 21.64C7.33002 22.68 8.38996 23.7299 9.45996 24.7599C9.95996 25.2399 10.36 25.7699 9.78003 26.3999C9.19003 27.0299 8.65002 26.67 8.15002 26.16C6.55002 24.55 4.95002 22.9399 3.33002 21.3399C2.70002 20.7199 2.69002 20.16 3.33002 19.53C4.97002 17.91 6.59997 16.28 8.21997 14.64C8.69997 14.15 9.23002 13.8899 9.77002 14.4799C10.3 15.0499 10.02 15.57 9.54004 16.05C8.45004 17.12 7.37999 18.2 6.29999 19.27C6.50999 19.63 6.83002 19.46 7.08002 19.47C11.19 19.48 15.31 19.4899 19.42 19.4799C22.72 19.4699 24.9801 17.43 25.3101 14.16C25.3801 13.47 25.53 12.82 26.39 12.89C27.26 12.96 27.27 13.64 27.24 14.32C27.05 18.15 23.82 21.33 19.95 21.39C15.77 21.45 11.58 21.41 7.39001 21.41C7.05001 21.41 6.71 21.41 6.37 21.41C6.34 21.48 6.31002 21.56 6.27002 21.64Z" fill="white"/>
</svg>
