<svg width="43" height="43" viewBox="0 0 43 43" fill="none" xmlns="http://www.w3.org/2000/svg">
<path d="M21.78 42.71C33.4995 42.71 43 33.2095 43 21.49C43 9.77053 33.4995 0.27002 21.78 0.27002C10.0605 0.27002 0.560059 9.77053 0.560059 21.49C0.560059 33.2095 10.0605 42.71 21.78 42.71Z" fill="#313740"/>
<path d="M21.83 20.96C25.4806 20.96 28.4399 18.0006 28.4399 14.35C28.4399 10.6994 25.4806 7.73999 21.83 7.73999C18.1794 7.73999 15.22 10.6994 15.22 14.35C15.22 18.0006 18.1794 20.96 21.83 20.96Z" stroke="white" stroke-width="2" stroke-miterlimit="10" stroke-linecap="round" stroke-linejoin="round"/>
<path d="M8.82999 32.51C8.82999 32.51 8.45 20.66 21.59 21.05C21.59 21.05 27.1101 20.66 30.7901 24.23C30.7901 24.23 33.99 27.38 33.99 32.55" stroke="white" stroke-width="2" stroke-miterlimit="10" stroke-linecap="round" stroke-linejoin="round"/>
</svg>
