<svg width="800" height="858" viewBox="0 0 800 858" fill="none" xmlns="http://www.w3.org/2000/svg">
<path d="M308.11 967.66C180.9 967.66 61.3 918.12 -28.65 828.17C-118.6 738.22 -168.14 618.62 -168.14 491.41C-168.14 364.2 -118.6 244.6 -28.65 154.65C61.3 64.69 180.9 15.15 308.11 15.15C435.32 15.15 554.92 64.69 644.87 154.64C734.82 244.59 784.36 364.19 784.36 491.4C784.36 618.61 734.82 738.21 644.87 828.16C554.91 918.12 435.32 967.66 308.11 967.66ZM308.11 25.37C51.14 25.37 -157.93 234.43 -157.93 491.41C-157.93 748.39 51.13 957.45 308.11 957.45C565.09 957.45 774.15 748.38 774.15 491.4C774.15 234.42 565.08 25.37 308.11 25.37ZM350.4 929.57H285.43C282.72 929.57 280.48 927.45 280.33 924.75L278.85 898.17C278.77 896.79 279.26 895.43 280.2 894.41C281.14 893.39 282.46 892.8 283.84 892.78L316.49 892.14V876.28L268.03 875.05L264.67 924.8C264.58 926.19 263.92 927.48 262.85 928.37C261.78 929.26 260.4 929.68 259.01 929.53C257.07 929.31 211.24 924.12 190.64 912.68C188.51 911.5 187.51 908.97 188.26 906.65L195.64 883.76C196.45 881.24 199.06 879.76 201.64 880.35L231.94 887.29L235.15 870.76C206.01 864.17 192.09 860.38 185.28 858.12L172.15 900.14C171.45 902.39 169.28 903.88 166.93 903.71C165.55 903.62 132.66 901.13 98.67 877.72C96.44 876.18 95.79 873.16 97.21 870.85L111.24 847.96C112.62 845.7 115.51 844.88 117.88 846.06L145.98 860.11L152.94 847.5L108.42 823.38L82.2 863.04C81.42 864.21 80.2 865.02 78.81 865.26C77.42 865.5 76 865.16 74.87 864.31L18.76 822.22C17.62 821.36 16.88 820.06 16.74 818.64C16.6 817.22 17.06 815.8 18.01 814.73L36.47 794.06C38.31 792 41.46 791.77 43.58 793.56L68.22 814.41L76.94 802.64L38.31 769L6.23999 801.07C4.33999 802.97 1.29999 803.07 -0.730011 801.31C-2.43001 799.83 -42.39 764.77 -51.6 740.98C-52.43 738.85 -51.73 736.42 -49.9 735.05L-29.23 719.55C-28.14 718.74 -26.78 718.39 -25.43 718.58C-24.09 718.77 -22.88 719.5 -22.07 720.59L-1.56001 748.15L10.43 738.83L-21.72 692.81L-61.94 716.94C-64.18 718.28 -67.07 717.72 -68.64 715.64C-69.69 714.25 -94.5 681.13 -102.77 645.04C-103.34 642.57 -102 640.05 -99.64 639.14L-76.75 630.28C-75.47 629.78 -74.04 629.83 -72.79 630.4C-71.54 630.97 -70.57 632.02 -70.11 633.32C-66.78 642.58 -60.44 657.87 -55.69 664.94L-41.53 658.55C-46.76 649.09 -57.71 627.64 -62.6 605.95L-106.81 617.83C-109.46 618.54 -112.19 617.04 -113.01 614.43C-113.65 612.37 -128.77 563.7 -127.27 528.51C-127.15 525.78 -124.9 523.62 -122.17 523.62H-97.07C-94.43 523.62 -92.23 525.63 -91.99 528.26C-90.56 543.69 -88.21 561.63 -86.33 569.37L-73.36 566.78C-75.44 553.34 -80.75 515.64 -79.08 491.1L-127.28 491.76C-128.63 491.79 -129.98 491.24 -130.95 490.28C-131.92 489.31 -132.47 487.99 -132.46 486.62C-132.46 486.43 -132.31 467.65 -131.7 448.97C-131.34 437.95 -130.88 429.11 -130.34 422.69C-129.36 410.9 -128.4 407.05 -124.33 405.88C-123.77 405.72 -123.19 405.66 -122.61 405.69L-96.03 407.35C-93.29 407.52 -91.17 409.83 -91.24 412.58L-92.21 450.09L-76.05 450.43C-76.23 434.22 -76.13 401.84 -72.88 387.08L-111.07 375.82C-113.77 375.03 -115.31 372.2 -114.53 369.5C-113.96 367.53 -100.3 320.87 -85.1 297.79C-83.67 295.62 -80.83 294.87 -78.51 296.05L-54.7 308.23C-53.48 308.85 -52.56 309.94 -52.15 311.25C-51.74 312.56 -51.87 313.97 -52.52 315.18C-52.63 315.39 -62.64 334.23 -66.38 346.75L-58.42 348.8C-56.37 343.78 -52.7 334.94 -48.73 326.18C-43.07 313.69 -39.18 306.45 -36.23 302.26L-68.31 279.28C-70.45 277.75 -71.07 274.83 -69.75 272.56C-68.62 270.63 -41.93 225.07 -22.08 208.63C-20.1 206.99 -17.2 207.08 -15.33 208.84L2.99998 225.96C4.00998 226.91 4.58999 228.22 4.60999 229.6C4.62999 230.98 4.08998 232.31 3.11998 233.29C-3.79002 240.21 -14.94 252.83 -18.85 260.58L-10.22 269.21C-1.78002 259.3 18.23 236.33 30.44 226.62L-1.06001 193.32C-2.83001 191.45 -2.93001 188.56 -1.29001 186.57C-0.150009 185.19 26.95 152.45 59.08 133.02C60.26 132.31 61.68 132.1 63.01 132.45C64.34 132.8 65.48 133.67 66.16 134.87L78.71 157.02C79.93 159.17 79.43 161.88 77.54 163.46L50.48 186.01L59.96 197.21C67.99 189.94 86.74 173.61 103.98 163.59L80.3 126.09C78.9 123.88 79.4 120.97 81.46 119.35C82.48 118.55 106.93 99.48 146.39 85.33C148.99 84.4 151.85 85.7 152.86 88.27L162.46 112.64C163.41 115.04 162.41 117.77 160.15 119L130.65 135.04L137.11 147.1L183.31 127.12L170.52 82.71C169.84 80.36 170.93 77.86 173.1 76.75C174.51 76.03 207.97 59.14 241.48 61.44C244.16 61.62 246.24 63.85 246.24 66.53V91.63C246.24 94.11 244.46 96.22 242.03 96.66L213.8 101.68L216.41 116.91C226.25 114.22 247.36 109.01 265.92 108.08C264.89 93.96 262.61 62.59 262.61 60.62C262.61 59 263.35 57.48 264.65 56.44C265.73 55.58 268.27 53.55 295.29 53.28C303.41 53.2 323.41 53.27 333.83 55.64C336.16 56.17 337.8 58.24 337.8 60.62V85.72C337.8 87.09 337.25 88.41 336.27 89.37C335.29 90.33 334 90.83 332.59 90.83L301.18 90.2C301.48 95.53 301.9 103.09 302.15 108.07C309.02 107.28 323.89 105.71 350.9 107.57L354.92 57.96C355.03 56.58 355.7 55.3 356.77 54.42C357.84 53.54 359.23 53.14 360.6 53.3C365.87 53.92 412.53 59.7 427.9 70.46C429.58 71.63 430.39 73.7 429.97 75.7L424.8 100.07C424.52 101.41 423.7 102.58 422.55 103.32C421.39 104.06 419.99 104.3 418.66 103.99L386.04 96.46L384.68 113.64C393.56 114.7 412.72 117.64 432.25 124.83L447.48 81.81C448.34 79.39 450.86 77.98 453.36 78.52C454.66 78.8 485.67 85.6 517.84 106.55C520.06 108 520.81 110.9 519.55 113.24L508.47 133.9C507.21 136.26 504.33 137.24 501.89 136.15L472.14 122.87L466.91 136.82C475.91 140.73 496.01 150 508.91 160.12L535.96 121.19C537.49 118.98 540.48 118.34 542.78 119.73C544.32 120.65 580.61 142.55 598.66 163.61C600.32 165.54 600.3 168.4 598.62 170.31L582.38 188.77C580.55 190.85 577.39 191.09 575.27 189.31L552.01 169.82L542.8 181.66C547.14 185.25 554.56 191.42 561.91 197.65C572.8 206.87 578.89 212.2 582.29 215.52C588.55 210.07 602.79 196.5 615.58 183.97C617.57 182.02 620.75 182.02 622.73 183.97C624.39 185.6 663.49 224.11 670.45 242.67C671.25 244.8 670.54 247.21 668.71 248.57L648.78 263.34C646.65 264.92 643.66 264.6 641.91 262.61L618.03 235.5L608.51 244.19C615.98 253.11 634.48 275.48 642.42 287.75L680.88 265.87C683.22 264.54 686.19 265.25 687.67 267.5C691.38 273.15 723.95 323.15 723.95 339.71C723.95 341.75 722.73 343.6 720.86 344.4L700.19 353.26C697.72 354.32 694.85 353.28 693.63 350.89C686.69 337.26 677.89 321.56 673.86 316.24L663.83 321.25C669.93 332.75 685.07 362.5 688.55 380.98L736.4 372.34C737.79 372.09 739.22 372.43 740.36 373.27C741.49 374.11 742.23 375.39 742.38 376.8C742.4 376.98 744.44 395.16 746.08 413.74C749.54 452.81 748.02 455.48 746.9 457.43C745.99 459.02 744.3 460 742.47 460H715.89C713.2 460 710.98 457.92 710.8 455.24L708.2 416.88L693.25 418.2C693.69 425.33 694.52 439.12 695.15 453.1C696.14 474.72 696.22 485.88 695.92 491.88H743.12C745.79 491.88 748.01 493.94 748.21 496.6C748.34 498.26 751.2 537.78 740.77 578.01C740.19 580.26 738.15 581.83 735.83 581.83H709.99C708.51 581.83 707.1 581.18 706.13 580.06C705.16 578.94 704.73 577.45 704.94 575.98L711.46 531.62H692.52C690.6 553.46 687.92 577.88 684.77 589.73L729.3 604.35C731.8 605.17 733.26 607.75 732.69 610.32C732.35 611.83 724.18 647.63 704.83 681.86C703.58 684.08 700.88 685.03 698.51 684.1L674.14 674.5C672.83 673.99 671.8 672.96 671.27 671.66C670.75 670.36 670.78 668.9 671.36 667.63L685.41 636.96L670.88 630.8C667.32 640.54 658.8 662.21 646.99 681.89L688.05 704.41C690.49 705.75 691.41 708.79 690.12 711.26C689.44 712.55 673.23 743.23 643.6 775.82C641.77 777.84 638.67 778.06 636.57 776.32L615.16 758.6C614.1 757.73 613.44 756.46 613.33 755.1C613.21 753.73 613.65 752.38 614.55 751.34L638.34 723.69L624.49 713.07L588.3 759.42L622.02 793.14C623.95 795.07 624.02 798.19 622.17 800.2C620.78 801.71 587.9 837.3 559.21 850.14C556.94 851.16 554.26 850.39 552.88 848.31L538.11 826.16C537.32 824.98 537.06 823.52 537.39 822.15C537.72 820.77 538.61 819.59 539.84 818.89C539.99 818.8 554.23 810.67 569.87 796.47L560.35 786.09C552.18 792.89 532.35 809.01 515.3 819.89L538.64 859.9C539.9 862.06 539.41 864.81 537.49 866.41C536.59 867.16 514.85 884.9 472.35 899.07C469.81 899.92 467.05 898.66 466.02 896.19L454.95 869.61C454.42 868.34 454.43 866.92 454.96 865.65C455.5 864.39 456.52 863.39 457.8 862.89L489.86 850.32L481.24 835.8L437.64 855.73L449.83 901.78C450.42 904 449.45 906.33 447.48 907.49C446.57 908.03 424.59 920.67 381.85 924.42C379.26 924.64 376.93 922.9 376.4 920.36L371.23 895.26C370.96 893.93 371.22 892.55 371.97 891.42C372.72 890.29 373.88 889.5 375.21 889.23L405.99 882.95L401.49 867.19C390.02 870.08 365.57 875.91 352.19 876.61L355.49 924.16C355.59 925.57 355.1 926.96 354.13 928C353.17 928.98 351.81 929.57 350.4 929.57ZM290.25 919.35H344.92L341.61 871.65C341.5 870.05 342.15 868.49 343.36 867.44C344.57 866.39 346.21 865.97 347.78 866.3C354.08 867.65 384.3 861.1 403.75 856.02C406.44 855.32 409.19 856.89 409.95 859.56L417.33 885.4C417.72 886.77 417.52 888.24 416.79 889.45C416.05 890.67 414.84 891.52 413.45 891.8L382.28 898.16L385.49 913.76C413.84 910.73 431.83 903.63 438.92 900.35L426.69 854.15C426.05 851.75 427.24 849.23 429.5 848.2L481.18 824.57C483.55 823.49 486.36 824.36 487.69 826.61L501.72 850.24C502.48 851.53 502.65 853.09 502.16 854.5C501.67 855.91 500.59 857.05 499.19 857.6L466.39 870.46L473.62 887.81C502.22 877.74 520.39 866.13 527.54 861.08L504 820.72C502.59 818.31 503.39 815.21 505.78 813.77C527.3 800.86 557.21 775.39 557.51 775.13C559.6 773.35 562.73 773.53 564.59 775.56L580.83 793.28C582.71 795.33 582.6 798.5 580.6 800.42C568.05 812.45 555.96 820.81 549.56 824.9L558.92 838.93C579.7 828.2 602.78 805.55 611.28 796.81L577.89 763.42C576.07 761.6 575.89 758.7 577.48 756.67L619.57 702.77C621.3 700.56 624.48 700.15 626.7 701.86L648.85 718.84C649.96 719.69 650.68 720.97 650.82 722.37C650.96 723.77 650.53 725.16 649.61 726.23L625.69 754.03L639.31 765.3C659.81 742.05 673.39 719.97 678.65 710.87L637.39 688.24C636.15 687.56 635.25 686.4 634.9 685.03C634.55 683.66 634.78 682.21 635.54 681.02C651.97 655.31 662.95 622.67 663.06 622.35C663.51 621 664.51 619.9 665.8 619.31C667.1 618.72 668.58 618.71 669.89 619.26L694.26 629.6C695.53 630.14 696.53 631.17 697.03 632.46C697.53 633.75 697.49 635.18 696.91 636.43L682.91 666.97L698.08 672.95C711.43 648.13 718.93 622.65 721.59 612.57L676.64 597.81C675.02 597.28 673.77 595.97 673.31 594.33C672.88 592.79 673.2 591.14 674.16 589.87C676.55 585.22 680.39 553.9 682.74 526.08C682.96 523.44 685.17 521.4 687.83 521.4H717.36C718.84 521.4 720.25 522.05 721.22 523.17C722.19 524.29 722.62 525.78 722.41 527.25L715.89 571.61H731.83C738.82 542.19 738.65 513.18 738.26 502.08H690.05C688.23 502.08 686.55 501.11 685.63 499.54C684.8 498.11 684.72 496.38 685.39 494.89C686.72 489.37 685.1 449.55 682.74 413.88C682.56 411.11 684.62 408.7 687.39 408.46L712.49 406.25C713.85 406.12 715.21 406.56 716.26 407.46C717.3 408.35 717.94 409.63 718.04 410.99L720.67 449.79H738.04C738.24 439.68 735.82 410.81 732.83 383.37L685.05 392C683.59 392.26 682.1 391.88 680.94 390.95C679.79 390.02 679.09 388.64 679.04 387.16C678.47 371.82 659.59 334.57 652.36 321.52C651.69 320.3 651.54 318.86 651.95 317.53C652.36 316.2 653.3 315.1 654.54 314.48L672.26 305.62C672.67 305.42 673.1 305.27 673.54 305.18C677.09 304.47 680.76 303.73 700.54 342.01L713.29 336.55C710.37 324.36 693.88 296 681.75 277.14L643.11 299.13C641.89 299.82 640.44 299.98 639.1 299.58C637.76 299.17 636.64 298.23 636.02 296.98C631.4 287.74 606.69 257.81 597.56 247.06C595.78 244.96 595.98 241.84 598.01 239.98L614.99 224.47C616 223.55 617.34 223.07 618.71 223.14C620.08 223.21 621.36 223.84 622.26 224.86L646.48 252.35L659.32 242.84C652.21 229.54 630.72 206.5 619.14 194.8C584.14 229.03 583.2 228.63 579.59 227.12C578.44 226.64 577.52 225.74 576.97 224.64C573.88 221.05 552.22 202.62 532.5 186.39C530.36 184.63 530.02 181.49 531.71 179.31L547.22 159.37C548.07 158.28 549.33 157.57 550.71 157.43C552.09 157.28 553.47 157.7 554.53 158.59L578.03 178.28L587.97 166.98C573.88 152.12 550.87 136.89 541.6 131.01L514.1 170.59C513.25 171.81 511.91 172.6 510.43 172.76C508.94 172.91 507.47 172.41 506.39 171.38C492.5 158.19 458.86 144.49 458.52 144.35C455.95 143.31 454.68 140.42 455.65 137.82L464.51 114.19C465.01 112.87 466.02 111.82 467.32 111.27C468.62 110.73 470.09 110.74 471.37 111.32L501.73 124.87L508.32 112.58C485.93 98.79 464.48 92.02 455.57 89.58L440.14 133.17C439.67 134.48 438.69 135.55 437.42 136.12C436.15 136.69 434.7 136.72 433.41 136.19C407.2 125.55 379.11 123.3 378.83 123.28C377.48 123.18 376.22 122.54 375.34 121.51C374.46 120.48 374.02 119.14 374.13 117.79L376.35 89.73C376.47 88.25 377.22 86.89 378.42 86.01C379.62 85.13 381.14 84.82 382.59 85.15L415.92 92.84L419.25 77.13C407.13 70.93 379.66 66.15 364.69 64.09L360.69 113.42C360.46 116.23 357.99 118.32 355.19 118.1C325.1 115.67 309.45 117.48 302.76 118.25C298.34 118.76 296.12 119.02 294 117.12C292.83 116.08 292.16 114.58 292.16 113C292.16 111.48 291.26 95.16 290.69 85.23C290.61 83.81 291.12 82.42 292.11 81.4C293.1 80.38 294.47 79.81 295.89 79.84L327.6 80.47V64.84C312.54 62.69 283.2 63.31 273.07 64.46C273.67 73.61 275.33 96.55 276.52 112.62C276.62 114.04 276.13 115.43 275.17 116.47C274.2 117.51 272.85 118.1 271.43 118.1C247.4 118.1 214.18 128.11 213.85 128.22C212.45 128.64 210.93 128.45 209.68 127.68C208.43 126.91 207.58 125.64 207.33 124.2L202.9 98.36C202.43 95.59 204.27 92.96 207.04 92.47L236.05 87.31V71.4C213.08 71.14 190.35 80.14 181.56 84.04L194.38 128.58C195.09 131.05 193.86 133.66 191.5 134.68L136.86 158.31C134.42 159.36 131.59 158.37 130.33 156.03L119.25 135.36C117.92 132.88 118.85 129.8 121.31 128.46L151.31 112.16L145.2 96.65C118.39 106.85 99.18 119.28 91.49 124.66L115.52 162.71C116.28 163.92 116.51 165.4 116.13 166.78C115.75 168.16 114.82 169.32 113.54 169.98C91.55 181.33 63.31 208.01 63.03 208.28C62.01 209.25 60.64 209.76 59.24 209.67C57.84 209.59 56.53 208.94 55.62 207.87L39.38 188.67C38.5 187.63 38.07 186.28 38.19 184.93C38.31 183.57 38.96 182.32 40.01 181.45L67.74 158.34L59.93 144.55C37 159.55 16.86 181.32 9.53998 189.64L42 223.95C43.12 225.14 43.61 226.79 43.31 228.4C43.01 230.01 41.96 231.37 40.49 232.07C32.75 235.75 7.88998 263.43 -5.96002 280.02C-6.88002 281.12 -8.22001 281.78 -9.65001 281.85C-11.08 281.92 -12.48 281.37 -13.49 280.36L-28.44 265.41C-29.77 264.08 -30.26 262.13 -29.72 260.33C-26.92 250.99 -14.24 236.73 -7.74002 229.85L-18.82 219.44C-33.6 233.67 -51.99 263.01 -58.46 273.67L-25.18 297.51C-23.38 298.8 -22.61 301.11 -23.29 303.22C-23.8 304.81 -25.05 306.02 -26.58 306.52C-30.71 310.55 -42.08 335.34 -50.54 356.7C-51.49 359.09 -54.07 360.41 -56.56 359.77L-73.73 355.34C-76.31 354.67 -77.94 352.14 -77.48 349.52C-75.73 339.45 -67.86 322.96 -63.83 314.95L-78.89 307.24C-89.6 325.56 -99.51 355.72 -103.17 367.44L-64.92 378.72C-63.39 379.17 -62.16 380.31 -61.59 381.81C-61.02 383.3 -61.19 384.97 -62.03 386.33C-64.95 391.19 -66.2 426.03 -65.68 455.52C-65.66 456.91 -66.2 458.25 -67.18 459.23C-68.16 460.21 -69.49 460.76 -70.89 460.72L-97.47 460.17C-98.83 460.14 -100.12 459.57 -101.06 458.59C-102 457.61 -102.51 456.29 -102.47 454.93L-101.49 417.21L-119.3 416.1C-120.76 425.43 -121.82 454.15 -122.12 481.45L-73.44 480.78C-71.96 480.73 -70.54 481.38 -69.55 482.49C-68.56 483.6 -68.11 485.08 -68.3 486.55C-71.85 513.52 -62.52 569.38 -62.42 569.94C-61.96 572.66 -63.75 575.26 -66.45 575.8L-88.6 580.23C-90.78 580.66 -92.99 579.64 -94.07 577.7C-97.48 571.56 -100.36 546.47 -101.63 533.81H-117.09C-117.03 560.53 -108.09 594.39 -104.58 606.65L-59.92 594.65C-58.53 594.28 -57.06 594.51 -55.85 595.28C-54.64 596.05 -53.81 597.29 -53.57 598.7C-48.62 626.96 -30.05 657.91 -29.86 658.22C-29.1 659.47 -28.92 660.98 -29.35 662.38C-29.78 663.78 -30.79 664.92 -32.12 665.52L-55.01 675.86C-56.94 676.73 -59.22 676.32 -60.72 674.82C-66.96 668.58 -74.37 650.6 -77.81 641.66L-91.68 647.03C-84.77 672.68 -69.29 696.75 -63.08 705.75L-22.83 681.6C-20.53 680.22 -17.55 680.85 -16.02 683.05L21.64 736.95C23.2 739.18 22.73 742.24 20.59 743.9L0.599991 759.41C-0.480009 760.25 -1.86002 760.62 -3.22002 760.44C-4.58002 760.25 -5.81002 759.53 -6.63002 758.43L-27.2 730.79L-40.52 740.78C-31.77 758.24 -6.85001 781.94 2.43999 790.43L34.46 758.41C36.36 756.51 39.4 756.41 41.42 758.17L87.2 798.04C89.21 799.79 89.53 802.79 87.95 804.93L73.18 824.87C72.34 826 71.07 826.74 69.67 826.9C68.27 827.06 66.86 826.64 65.78 825.73L40.78 804.58L29.34 817.4L76.67 852.9L102.48 813.86C103.94 811.65 106.84 810.93 109.17 812.19L162.33 840.99C163.53 841.64 164.42 842.74 164.8 844.04C165.18 845.35 165.03 846.75 164.37 847.94L152.56 869.35C151.24 871.75 148.26 872.68 145.81 871.45L117.51 857.3L108.5 872C132.16 887.14 154.79 891.76 163.68 893.06L177.18 849.85C177.71 848.14 179.1 846.84 180.83 846.42C182.34 846.05 183.93 846.39 185.15 847.32C189.23 849.37 217.18 856.29 242.23 861.9C244.93 862.5 246.66 865.14 246.13 867.86L240.96 894.44C240.7 895.8 239.89 896.99 238.73 897.75C237.57 898.5 236.15 898.76 234.81 898.45L203.93 891.37L199.33 905.63C215.33 912.83 243.24 917.17 254.84 918.74L258.17 869.5C258.35 866.77 260.7 864.67 263.39 864.74L321.72 866.22C324.49 866.29 326.7 868.56 326.7 871.32V897.16C326.7 899.94 324.47 902.21 321.69 902.27L289.33 902.9L290.25 919.35ZM674.35 589.62C674.34 589.62 674.34 589.63 674.35 589.62C674.34 589.63 674.34 589.62 674.35 589.62ZM685.6 494.42C685.6 494.42 685.6 494.43 685.59 494.43C685.6 494.43 685.6 494.43 685.6 494.42ZM-28.17 306.77C-28.18 306.77 -28.18 306.77 -28.19 306.77C-28.18 306.77 -28.18 306.77 -28.17 306.77ZM576.39 222.34C576.39 222.49 576.4 222.63 576.41 222.77C576.4 222.63 576.39 222.49 576.39 222.34ZM576.39 222.32C576.39 222.33 576.39 222.33 576.39 222.34C576.39 222.33 576.39 222.33 576.39 222.32ZM576.39 222.29C576.39 222.3 576.39 222.3 576.39 222.31C576.39 222.31 576.39 222.3 576.39 222.29Z" fill="#363E49"/>
<path d="M308.11 844.36C213.83 844.36 125.2 807.65 58.5399 740.98C-8.1201 674.31 -44.8501 585.68 -44.8501 491.4C-44.8501 397.12 -8.1301 308.49 58.5299 241.83C125.19 175.17 213.83 138.45 308.1 138.45C402.38 138.45 491.01 175.16 557.67 241.83C624.33 308.5 661.05 397.13 661.05 491.4C661.05 585.67 624.34 674.31 557.67 740.97C491 807.63 402.38 844.36 308.11 844.36ZM308.11 148.66C119.12 148.66 -34.6301 302.41 -34.6301 491.4C-34.6301 680.39 119.12 834.14 308.11 834.14C497.1 834.14 650.85 680.39 650.85 491.4C650.85 302.41 497.09 148.66 308.11 148.66Z" fill="#363E49"/>
<path d="M308.11 829.01C217.93 829.01 133.15 793.89 69.39 730.13C5.62 666.36 -29.5 581.58 -29.5 491.4C-29.5 401.22 5.62 316.45 69.38 252.68C133.15 188.91 217.92 153.8 308.1 153.8C398.28 153.8 483.06 188.92 546.82 252.68C610.58 316.44 645.7 401.22 645.7 491.4C645.7 581.58 610.58 666.36 546.82 730.12C483.06 793.89 398.28 829.01 308.11 829.01ZM308.11 154.8C218.2 154.8 133.67 189.81 70.09 253.39C6.50999 316.97 -28.5 401.49 -28.5 491.4C-28.5 581.31 6.50999 665.84 70.09 729.42C133.67 793 218.2 828.01 308.11 828.01C398.02 828.01 482.55 793 546.13 729.42C609.71 665.84 644.72 581.32 644.72 491.41C644.72 401.5 609.71 316.97 546.13 253.39C482.55 189.81 398.02 154.8 308.11 154.8Z" fill="#363E49"/>
<path d="M308.11 982.31C176.98 982.31 53.71 931.25 -39.01 838.53C-131.73 745.81 -182.79 622.53 -182.79 491.41C-182.79 360.29 -131.73 237.01 -39.01 144.29C53.71 51.57 176.99 0.51001 308.11 0.51001C439.23 0.51001 562.51 51.57 655.23 144.29C747.95 237.01 799.01 360.29 799.01 491.41C799.01 622.54 747.95 745.81 655.23 838.53C562.51 931.25 439.23 982.31 308.11 982.31ZM308.11 1.50002C177.25 1.50002 54.2299 52.46 -38.3 144.99C-130.84 237.52 -181.8 360.55 -181.8 491.4C-181.8 622.25 -130.84 745.28 -38.31 837.82C54.22 930.36 177.25 981.31 308.1 981.31C438.96 981.31 561.98 930.35 654.52 837.82C747.05 745.29 798.01 622.26 798.01 491.4C798.01 360.54 747.05 237.52 654.52 144.98C561.99 52.46 438.96 1.50002 308.11 1.50002Z" fill="#363E49"/>
<path d="M308.09 238.31L68.0699 655.41H131.3L308.09 349.22L356.72 438.72L421.23 435.4L308.09 238.31Z" fill="#363E49"/>
<path d="M482.38 546.2L453.27 489.84H292.97L197.11 655.41H548.14L516.93 599.24L287.51 600.95L317.65 546.2H482.38Z" fill="#363E49"/>
</svg>
