<svg width="156" height="18" viewBox="0 0 156 18" fill="none" xmlns="http://www.w3.org/2000/svg">
<path fill-rule="evenodd" clip-rule="evenodd" d="M6.01001 0.809937L0.76001 17.2599H4.32001L5.38 13.8099H13.42L14.48 17.2599H18.02L12.77 0.809937H6.01001ZM8.56001 3.32994H10.2L12.62 11.1799H6.18001L8.56001 3.32994Z" fill="white"/>
<path fill-rule="evenodd" clip-rule="evenodd" d="M21.7501 8.05H36.8401C37.8501 8.05 38.5801 7.85 39.0101 7.44C39.4501 7.04 39.6601 6.41001 39.6601 5.57001C39.6601 4.78001 39.4401 4.21 38.9901 3.86C38.5501 3.51 37.8301 3.34 36.8301 3.34H21.7401V8.05H21.7501ZM35.9901 10.52H21.7401V17.21H18.3101V0.75H37.8101C39.6901 0.75 41.0601 1.16999 41.9101 2.00999C42.7601 2.84999 43.1801 4.01 43.1801 5.48C43.1801 8.2 41.9901 9.82 39.6101 10.33L44.3301 17.21H40.5201L35.9901 10.52Z" fill="white"/>
<path fill-rule="evenodd" clip-rule="evenodd" d="M94.86 0.75H98.29V7.44H112.51V0.75H115.94V17.21H112.51V10.31H98.29V17.21H94.86V0.75Z" fill="white"/>
<path fill-rule="evenodd" clip-rule="evenodd" d="M48.21 3.55H38.62V0.75H68.93V3.55H51.62V17.21H48.21V3.55Z" fill="white"/>
<mask id="mask0_574_5" style="mask-type:alpha" maskUnits="userSpaceOnUse" x="68" y="0" width="26" height="18">
<path fill-rule="evenodd" clip-rule="evenodd" d="M68.21 0.349976H93.72V17.61H68.21V0.349976Z" fill="white"/>
</mask>
<g mask="url(#mask0_574_5)">
<path fill-rule="evenodd" clip-rule="evenodd" d="M71.5399 16.46C70.3999 15.7 69.55 14.67 69.02 13.37C68.48 12.07 68.21 10.61 68.21 8.96997C68.21 7.33997 68.47 5.86998 69 4.56998C69.53 3.26998 70.3699 2.23997 71.5099 1.47997C72.5899 0.759965 73.95 0.379966 75.6 0.339966C75.7 0.339966 86.51 0.339966 86.61 0.339966C87.96 0.339966 89.17 0.599974 90.22 1.12997C91.27 1.65997 92.1 2.40997 92.7 3.37997C93.3 4.34997 93.6099 5.47997 93.6499 6.76997H90.05C90.02 5.64997 89.69 4.77997 89.06 4.16997C88.43 3.55997 87.56 3.24997 86.46 3.24997C86.32 3.24997 75.47 3.24996 75.35 3.25996C74.08 3.34996 73.1899 3.84996 72.6799 4.78996C72.1199 5.81996 71.84 7.19997 71.84 8.93997C71.84 10.11 71.95 11.1 72.17 11.94C72.39 12.77 72.78 13.43 73.36 13.92C73.86 14.35 74.54 14.59 75.39 14.64C75.51 14.65 86.3599 14.65 86.4799 14.65C87.65 14.65 88.53 14.36 89.13 13.78C89.73 13.2 90.0599 12.35 90.1199 11.25H93.72C93.7 12.52 93.3899 13.64 92.7599 14.6C92.1399 15.56 91.2899 16.29 90.2299 16.82C89.16 17.34 87.97 17.6 86.64 17.6C86.53 17.6 75.71 17.6 75.6 17.6C73.97 17.56 72.6099 17.18 71.5399 16.46Z" fill="white"/>
</g>
<mask id="mask1_574_5" style="mask-type:alpha" maskUnits="userSpaceOnUse" x="0" y="0" width="156" height="18">
<path fill-rule="evenodd" clip-rule="evenodd" d="M0.75 17.61H155.24V0.349976H0.75V17.61Z" fill="white"/>
</mask>
<g mask="url(#mask1_574_5)">
<path fill-rule="evenodd" clip-rule="evenodd" d="M117.61 17.21H121.04V0.75H117.61V17.21Z" fill="white"/>
<path fill-rule="evenodd" clip-rule="evenodd" d="M138.63 0.75L132.72 17.21H127.88L121.95 0.75H125.55L129.59 13.02L131.05 13.01L135.06 0.75H138.63Z" fill="white"/>
<path fill-rule="evenodd" clip-rule="evenodd" d="M139.36 0.75H155.24V3.55H142.8V7.44H149.34V10.24H142.8V14.41H155.25V17.21H139.37V0.75H139.36Z" fill="white"/>
</g>
</svg>
