<svg width="23" height="16" viewBox="0 0 23 16" fill="none" xmlns="http://www.w3.org/2000/svg">
<path d="M15.6197 15.73C15.3597 15.73 15.0897 15.63 14.8897 15.43C14.4897 15.03 14.4897 14.37 14.8897 13.97L20.2797 8.58003L14.4396 2.74C14.0396 2.34 14.0396 1.68004 14.4396 1.28004C14.8396 0.880042 15.4997 0.880042 15.8997 1.28004L22.4697 7.84999C22.8697 8.24999 22.8697 8.91001 22.4697 9.31001L16.3497 15.43C16.1397 15.63 15.8797 15.73 15.6197 15.73Z" fill="white"/>
<path d="M7.48982 15.73C7.74982 15.73 8.0198 15.63 8.2198 15.43C8.6198 15.03 8.6198 14.37 8.2198 13.97L2.82979 8.58003L8.66987 2.74C9.06987 2.34 9.06987 1.68004 8.66987 1.28004C8.26987 0.880042 7.60979 0.880042 7.20979 1.28004L0.639844 7.84999C0.239844 8.24999 0.239844 8.91001 0.639844 9.31001L6.75984 15.43C6.95984 15.63 7.21982 15.73 7.48982 15.73Z" fill="white"/>
</svg>
